<svg version="1.1" xmlns="http://www.w3.org/2000/svg" viewBox="0 0 897.0526757838359 505.5" width="1794.1053515676717" height="1011">
  <!-- svg-source:excalidraw -->
  
  <defs>
    <style>
      @font-face {
        font-family: "Virgil";
        src: url("https://excalidraw.com/FG_Virgil.woff2");
      }
      @font-face {
        font-family: "Cascadia";
        src: url("https://excalidraw.com/Cascadia.woff2");
      }
    </style>
  </defs>
  <rect x="0" y="0" width="897.0526757838359" height="505.5" fill="#ffffff"></rect><g transform="translate(294.53478640040066 101.5) rotate(0 295.5 197)"><path d="M-0.22605999112129213 -0.14183141589164736 C130.59730034694076 1.3668530546724795, 260.3469485267997 1.3778887831270694, 591.7694430530071 -0.6143882930278779 M-0.11749325692653656 -0.31700510084629063 C211.72927523925904 -1.4573543591797353, 423.23833926767117 -1.497795013934374, 591.1624972254037 -0.09643253386020662 M591.6769240941165 0.1954606982917607 C589.6968594503712 148.61191745064764, 589.4479286598646 297.3842272545477, 591.0419071501359 394.135325810824 M590.813067566933 -0.5470861793106466 C591.5319974438863 132.33561434935186, 591.4868090499657 265.49811858227156, 591.2500347073391 393.7243643650748 M590.9870743930339 394.06802614331247 C454.9663054265082 395.54554313263293, 317.47143367677927 395.7063713415563, -0.3427765667438507 393.4323467075825 M591.1597682863473 394.1749502748251 C383.78949949070807 396.4107617619336, 176.12234653979536 396.61075689819455, 0.3580021768808365 394.32308021485807 M1.0896585336547076 394.10502204639397 C1.9849266014728324 255.72702641174553, 0.9307798492597359 117.7144565352819, -0.2131426829455197 0.5040427368192494 M0.5317907037465006 394.331394147331 C-1.7988859305329519 281.788836786835, -2.452372319869824 171.12050188665097, -0.14437724834614693 -0.26768211685899795" stroke="#000000" stroke-width="1" fill="none"></path></g><g><g transform="translate(294.53478640040066 132.5) rotate(0 296.4022869801568 -0.7017601291136799)"><path d="M1.1448021680116651 0.7454520910978317 C100.00969547728697 0.7770507862170537, 494.18394395013644 -0.2082496275504431, 592.5178893834352 -0.3615721970796586 M0.2866845768783244 0.09121049358509481 C99.09762558471101 -0.17873374815719828, 492.95689565500555 -1.7865038937920086, 591.8417358461115 -2.148972349325195" stroke="#000000" stroke-width="1" fill="none"></path></g></g><g transform="translate(299.53478640040066 103.5) rotate(0 74.5 13)"><text x="0" y="18" font-family="Virgil, Segoe UI Emoji" font-size="20px" fill="#000000" text-anchor="start" style="white-space: pre;" direction="ltr">Ongoing project</text></g><g transform="translate(301.53478640040066 164.5) rotate(0 75.5 160.5)"><path d="M1.770980790257454 -0.9862734824419022 C43.539517874270686 1.3920137073844672, 88.54433730691673 1.5873629238456488, 149.35278744995594 -0.5970031768083572 M-0.03333578258752823 0.8484387174248695 C31.63570355847478 1.875355376675725, 61.08979996740818 0.3239110846072435, 151.02162804454565 0.007338263094425201 M152.12420693964577 0.9874492408290861 C149.35159422688764 103.26920445701919, 150.57626859533246 205.72471203219368, 149.78740213248025 321.2498857536587 M151.39194748065015 0.19506566285266874 C149.93046724999968 126.96120918039747, 149.46702679126554 254.0040277840751, 151.59136376069776 320.57583664091055 M150.42089934647083 319.2323534935713 C96.71396595165133 321.18507117606697, 40.38491646796464 322.7368962226063, 1.9747824221849442 321.7223012894392 M150.74597587436438 321.0014314427972 C118.34532923921942 321.35334574572744, 88.43237639069557 322.5658022104949, -0.5779207721352577 320.18640825897455 M0.7073276739475249 320.7676339209805 C-1.3266316067597979 252.08267101177583, -3.3632848609712234 183.98538893655558, 0.08652319881324767 0.7799539142787932 M0.5039107086164474 320.9981548245348 C2.5388020297963347 222.4398003817062, 2.6308001386403292 123.8475041875104, 0.2856798913984298 0.19942009360828397" stroke="#000000" stroke-width="1" fill="none"></path></g><g transform="translate(623.0347864004007 164) rotate(0 75.5 160.5)"><path d="M1.498424008488655 -1.5746862441301346 C37.091255349665886 2.092085445150733, 73.00972450822593 0.19427975438535205, 149.48933406174183 -1.3555056601762772 M0.9310256466269493 -0.4610116705298424 C48.72204796746374 -0.5198630266636608, 96.21048087179662 -0.031932013556360994, 151.69562234729528 0.38632629066705704 M151.31881855267068 -0.6476920341098784 C151.63980813354212 108.07678152334152, 153.80972644769008 216.26341870227728, 152.26508838261452 321.11929478536035 M150.71657418829784 -0.326166274775505 C149.57052671897972 72.73222925412031, 149.53554293426902 145.18744613789895, 151.54125709041577 320.757472259337 M150.8549770861864 320.5989273041487 C94.84424656555056 317.9990129957348, 40.89450542479753 318.74186282254755, -0.050200507044792175 321.7713244408369 M151.66390480846167 320.34900925308466 C101.17992418035865 321.5944932376593, 51.549115854501736 322.14954766385256, -0.7272144332528114 321.63209245353937 M0.12192402994117735 321.19661569057274 C0.27198684567068276 232.93558391696232, 0.28052256216238197 146.5800530398362, 1.1959908669162749 -0.24811428448829648 M0.09104657602977752 320.864458733391 C1.3085025309515474 215.9595463707153, 0.3570222013189792 111.74472612542239, -0.07712135661792754 0.5636730960191726" stroke="#000000" stroke-width="1" fill="none"></path></g><g transform="translate(461.03478640040066 164) rotate(0 75.5 160.5)"><path d="M1.4829439669847488 -0.8117696791887283 C45.655644006282095 3.4313791539520024, 93.30241936296225 3.3311808850616216, 150.45212550461292 1.550233170390129 M-0.8770912662148476 -0.0725114569067955 C39.85499131157995 0.7502037686854601, 79.27276572287084 1.76315919585526, 150.533135317266 -0.025100253522396088 M151.15781499466286 0.9271977707729339 C150.7656274589005 108.71558750412765, 152.26674782929845 217.69550265896675, 152.3671373933567 319.9843851214932 M151.09614270011426 0.060962014970588674 C150.50391372038303 116.42117237694745, 150.26733585754732 233.01560799380712, 151.57790256785717 321.59799543345815 M151.8702587634325 321.2607696503401 C107.99443005248904 321.0951788816601, 64.82802822142838 318.37001113034785, 0.4902276545763016 320.7791140526533 M151.89118828624487 321.5497653260827 C93.23306634649634 318.90531602971254, 36.66639795899391 320.2432073699683, -0.002738572657108307 320.8063592687249 M1.1498567094333647 319.9623154579555 C-1.8340906488908402 199.25952885687926, -1.0868596761491411 79.74758575228736, 1.1231261151584624 -0.9080631858554838 M0.3480390690961837 320.3076323418871 C2.171104172368539 224.04995406644284, 1.972724764610971 127.74861660838137, -0.09213169792652129 -0.5708290111097335" stroke="#000000" stroke-width="1" fill="none"></path></g><g transform="translate(303.53478640040066 143.5) rotate(0 23 10.5)"><text x="0" y="15" font-family="Virgil, Segoe UI Emoji" font-size="16px" fill="#000000" text-anchor="start" style="white-space: pre;" direction="ltr">To do</text></g><g transform="translate(464.53478640040066 141) rotate(0 46 10.5)"><text x="0" y="15" font-family="Virgil, Segoe UI Emoji" font-size="16px" fill="#000000" text-anchor="start" style="white-space: pre;" direction="ltr">In progress</text></g><g transform="translate(629.5347864004007 142) rotate(0 24 10.5)"><text x="0" y="15" font-family="Virgil, Segoe UI Emoji" font-size="16px" fill="#000000" text-anchor="start" style="white-space: pre;" direction="ltr">Done!</text></g><g transform="translate(785.5347864004007 161.5) rotate(0 50.5 160.5)"><path d="M1.8645414859056473 -0.7179338485002518 C21.656789281219247 -0.31544521145522597, 43.42897176891566 -1.8969056873768568, 99.66715808212757 -1.6122176200151443 M-0.7511023059487343 -0.4594104513525963 C33.34658721610904 1.0812154152244329, 67.26766388416291 0.4798214771598578, 101.28391065448523 0.6512026563286781 M101.23602726375465 -0.04717049910011291 C99.25757053275183 102.73639379082809, 99.96480234221228 206.29278155224068, 101.329336779636 319.7216482094326 M101.28267915502148 0.595444041703987 C98.45077244533152 79.45364381654096, 98.71172280046457 159.70465942126074, 100.87846927667064 321.6331165687853 M100.0466560870409 322.13597755134106 C72.98373878374696 323.25057419471443, 47.01110773533583 320.9152379863709, -1.42572121322155 320.01131658256054 M101.39809765666723 321.57198498398066 C74.71023999229072 321.1594110325724, 47.31403119266032 321.35365613259376, -0.12690220028162003 321.30389020591974 M0.4601361879001617 320.9874365287075 C-0.4172907376054399 254.57654482691711, 1.1535777741987592 186.2319162716111, 1.3768062108127592 -0.7506490572910308 M0.4364209443159103 321.426481473308 C-1.5178649642186182 198.50311527133172, -1.2637232040074364 75.9527460617383, 0.3718416811994552 0.2927883789049148" stroke="#000000" stroke-width="1" fill="none"></path></g><g transform="translate(788.5347864004007 140) rotate(0 29.5 10.5)"><text x="0" y="15" font-family="Virgil, Segoe UI Emoji" font-size="16px" fill="#000000" text-anchor="start" style="white-space: pre;" direction="ltr">Blocked</text></g><g transform="translate(309.53478640040066 173.5) rotate(0 66 41)"><path d="M-1.8317400962114334 0.07381577789783478 C35.83266524076462 0.25781092077493684, 73.32450893223286 -0.8802491721510886, 132.68326263129708 1.7704753428697586 M0.8207936063408852 0.528171680867672 C29.836026559770104 1.3344709515571593, 61.53238896876573 0.23123308420181254, 132.2156550660729 -0.11430559307336807 M131.3525627106428 -0.4453945606946945 C132.7958126054704 28.555136071145537, 134.04342317447063 55.47358967661858, 130.91424207389352 83.37914891541004 M132.70543739944694 0.1687087044119835 C132.29692231878636 29.034065452218055, 132.54197918638584 56.45303395539522, 131.6210279241204 82.63892521709204 M131.75944547355172 82.19245381653309 C100.15734177231786 84.02262506693602, 63.13169986307618 82.00123367518187, 0.1095006912946701 83.70786948502064 M132.79141328483817 82.31067242473364 C89.1203988716006 83.30462469518184, 44.35756469517945 82.24388255536556, -0.02983548492193222 81.81130733340979 M-1.6623613387346268 82.15581794083118 C1.5009341479837894 59.195519109070304, -1.0150966404378414 38.41974481344223, 1.6396439522504807 -0.7467809170484543 M0.6863872781395912 82.60030307620764 C-0.1326992933452129 56.10398719906807, 0.4285044248402119 30.801419796049593, -0.21520664542913437 -0.239981509745121" stroke="#000000" stroke-width="1" fill="none"></path></g><g><g transform="translate(310.53478640040066 192.5) rotate(0 65.15725710392465 0.44536230266093924)"><path d="M0.08301189243793483 -0.9329401284456253 C21.860224130749707 -0.5543179144461949, 109.5408345013857 1.6555497219165167, 131.6470598012209 1.8236647337675096 M-1.3325455933716148 1.1916623587813229 C20.169681781241668 1.2759289833313476, 108.23615374566056 0.18079011414510504, 130.51372073323466 0.13351397021673617" stroke="#000000" stroke-width="1" fill="none"></path></g></g><g transform="translate(316.53478640040066 173) rotate(0 19 10.5)"><text x="0" y="15" font-family="Virgil, Segoe UI Emoji" font-size="16px" fill="#000000" text-anchor="start" style="white-space: pre;" direction="ltr">Task</text></g><g transform="translate(315.53478640040066 196) rotate(0 57 31)"><text x="0" y="14.666666666666668" font-family="Virgil, Segoe UI Emoji" font-size="16px" fill="#000000" text-anchor="start" style="white-space: pre;" direction="ltr">&lt;description&gt;</text><text x="0" y="35.333333333333336" font-family="Virgil, Segoe UI Emoji" font-size="16px" fill="#000000" text-anchor="start" style="white-space: pre;" direction="ltr">Class: &lt;class&gt;</text><text x="0" y="56" font-family="Virgil, Segoe UI Emoji" font-size="16px" fill="#000000" text-anchor="start" style="white-space: pre;" direction="ltr">Due: &lt;time&gt;</text></g><g transform="translate(470.03478640040066 174.5) rotate(0 66 41)"><path d="M1.5743875056505203 1.259285256266594 C35.218997395038606 -0.8755680742859842, 73.4133661955595 2.1113155660033227, 132.7527823001146 1.5544088333845139 M0.2924007400870323 0.47612474113702774 C44.35143503099679 1.22684309720993, 91.43722560852764 1.225676515102386, 132.45702948421237 -0.7297675833106041 M133.68547196686265 -0.582687571644783 C132.87820546522732 21.498245395720005, 131.8937098254263 38.49890187382698, 133.09282489120957 81.75032357871532 M131.77806868404147 -0.8465526327490807 C131.6880075599253 23.245435842871668, 131.16228434100745 48.12475494593382, 132.24313535541293 82.3867411389947 M131.88672061264512 81.89069299399853 C87.00544385313987 80.87670372277498, 43.12802756726741 81.82357881814241, -0.9921050518751144 80.09704093635082 M132.00564184039828 82.33727786689997 C104.60385843068359 82.62187803804875, 75.27521802633999 81.31722940027714, 0.8529335483908653 81.95531437546015 M1.3934654742479324 81.97190742194653 C-0.13489925161004068 49.869344644248486, -0.3621011902391911 17.966778814792633, 1.5414495021104813 -0.691083624958992 M0.2229229435324669 82.71340725570917 C1.4412703816592694 54.18113462328911, 1.5127303902804852 26.14761839956045, 0.49516429752111435 0.07580564171075821" stroke="#000000" stroke-width="1" fill="none"></path></g><g><g transform="translate(471.03478640040066 193.5) rotate(0 66.87025208682752 0.7884832517709555)"><path d="M0.9446325033903122 0.7555711537599563 C22.958834144473077 0.849654526511828, 109.44334370791913 0.07745829721291861, 131.37516314685345 0.3002617627382279 M-0.01857416166923942 0.1066420641448349 C22.455062052169815 0.3669869557923327, 111.74748028562402 1.434200691472118, 133.7590783353243 1.4703244393970816" stroke="#000000" stroke-width="1" fill="none"></path></g></g><g transform="translate(477.03478640040066 174) rotate(0 19 10.5)"><text x="0" y="15" font-family="Virgil, Segoe UI Emoji" font-size="16px" fill="#000000" text-anchor="start" style="white-space: pre;" direction="ltr">Task</text></g><g transform="translate(476.03478640040066 197) rotate(0 57 31)"><text x="0" y="14.666666666666668" font-family="Virgil, Segoe UI Emoji" font-size="16px" fill="#000000" text-anchor="start" style="white-space: pre;" direction="ltr">&lt;description&gt;</text><text x="0" y="35.333333333333336" font-family="Virgil, Segoe UI Emoji" font-size="16px" fill="#000000" text-anchor="start" style="white-space: pre;" direction="ltr">Class: &lt;class&gt;</text><text x="0" y="56" font-family="Virgil, Segoe UI Emoji" font-size="16px" fill="#000000" text-anchor="start" style="white-space: pre;" direction="ltr">Due: &lt;time&gt;</text></g><g transform="translate(310.03478640040066 265.5) rotate(0 66 41)"><path d="M0.32425446808338165 0.08742885291576385 C47.584126865863794 -1.8717937460541723, 93.07002770602702 -2.3225169172883033, 133.59989352524278 0.4603569954633713 M-0.16806206852197647 -0.5241096243262291 C52.7950090304017 1.4354404330253598, 103.86467040032147 1.6094981551170346, 131.6236037239432 0.9753584638237953 M130.19359393417832 -1.0272032767534256 C131.66218871966 19.809181608259678, 133.08136434450742 41.56870797276497, 131.67133565247056 81.04328040778637 M132.80652036517856 -0.45545246452093124 C132.93001438155767 16.715464434027673, 132.9003315068781 35.066534225642684, 131.95502056926486 82.7978989854455 M133.3254608660936 83.32146720588207 C101.102066129446 80.2477877548337, 68.96505139768122 79.62912635117769, 0.4432935267686844 80.22183065116405 M131.26104512065646 81.90901920944452 C79.5496676519513 82.65288094103336, 26.03814217299221 82.39210895121097, -0.2533956542611122 82.33837316185236 M-1.2366877049207687 81.84779576957226 C1.3186196683347224 62.39544208496808, -0.7363563181459905 37.2402533173561, -0.7126508206129074 -0.3677618056535721 M0.40425243228673935 81.66915891319513 C0.03405663177371021 59.33051034808159, 0.2875921408832073 34.08656545728445, 0.9180327877402306 0.3606970086693764" stroke="#000000" stroke-width="1" fill="none"></path></g><g><g transform="translate(311.03478640040066 284.5) rotate(0 65.50222478352953 0.3365361182298443)"><path d="M0.19455268085002908 0.052457311749458224 C22.241002246737484 -0.013881068428357513, 110.35351168811322 0.3960302462180455, 132.16689545810223 0.4106580525636673 M-1.1624458910431712 -0.9656065449211747 C20.750368408123034 -0.9499048264914504, 108.86548645542004 1.3100229137049368, 131.3064701099787 1.638678781380877" stroke="#000000" stroke-width="1" fill="none"></path></g></g><g transform="translate(317.03478640040066 265) rotate(0 19 10.5)"><text x="0" y="15" font-family="Virgil, Segoe UI Emoji" font-size="16px" fill="#000000" text-anchor="start" style="white-space: pre;" direction="ltr">Task</text></g><g transform="translate(316.03478640040066 288) rotate(0 57 31)"><text x="0" y="14.666666666666668" font-family="Virgil, Segoe UI Emoji" font-size="16px" fill="#000000" text-anchor="start" style="white-space: pre;" direction="ltr">&lt;description&gt;</text><text x="0" y="35.333333333333336" font-family="Virgil, Segoe UI Emoji" font-size="16px" fill="#000000" text-anchor="start" style="white-space: pre;" direction="ltr">Class: &lt;class&gt;</text><text x="0" y="56" font-family="Virgil, Segoe UI Emoji" font-size="16px" fill="#000000" text-anchor="start" style="white-space: pre;" direction="ltr">Due: &lt;time&gt;</text></g><g transform="translate(632.0347864004007 172.5) rotate(0 66 41)"><path d="M-1.5893890410661697 -1.3984013050794601 C33.44500159025192 0.27761020094156286, 62.6618110448122 -2.031241517961025, 132.73168973624703 -0.6047416180372238 M0.6100985780358315 0.0684603676199913 C43.66495317071676 -0.5837015795707701, 85.05547823458909 0.2154729676246645, 131.98095033317801 0.453532837331295 M132.85716657340524 0.28766484558582306 C133.38794659957287 27.811866484582424, 131.54340934142468 58.71932312846184, 131.28302745521066 81.01829047501087 M131.8627614751458 -0.6408332362771034 C133.03327151522038 24.896892085671425, 132.22808881983158 48.11103189736605, 132.9323208108544 82.0578607544303 M133.13518886268136 82.70159049332142 C77.72120533585547 82.28118764132262, 27.832414069771758 80.5294343110919, -1.5455939322710037 82.63529534637928 M132.43809435516593 81.25261821597815 C102.47891399115322 82.53615719258785, 75.03557987958192 82.35292512357235, -0.4496445879340172 81.20609583705664 M-0.6347167044878006 83.58995766937733 C0.22368323341012009 62.94544400721789, 0.5344499303400517 39.85703691244125, 0.2883060425519943 0.8209800273180008 M-0.5171742662787437 81.48099245876074 C0.607495108395815 51.49873989224433, 0.08867410734295855 20.629913534224023, 0.14584515243768692 0.09135331958532333" stroke="#000000" stroke-width="1" fill="none"></path></g><g><g transform="translate(633.0347864004007 191.5) rotate(0 66.05436404049397 0.3065986841917123)"><path d="M-0.9536334246397018 -0.839040783047676 C21.03982026875019 -0.6691404928763707, 110.97212131321429 1.3012435009082157, 133.06236150562762 1.4522381514310836 M0.7465702980849893 1.3348588605131955 C22.578565891692417 1.1008245512253296, 111.02886613369918 -0.35952687289255364, 132.67205583245493 -0.43291156784631313" stroke="#000000" stroke-width="1" fill="none"></path></g></g><g transform="translate(639.0347864004007 172) rotate(0 19 10.5)"><text x="0" y="15" font-family="Virgil, Segoe UI Emoji" font-size="16px" fill="#000000" text-anchor="start" style="white-space: pre;" direction="ltr">Task</text></g><g transform="translate(638.0347864004007 195) rotate(0 57 31)"><text x="0" y="14.666666666666668" font-family="Virgil, Segoe UI Emoji" font-size="16px" fill="#000000" text-anchor="start" style="white-space: pre;" direction="ltr">&lt;description&gt;</text><text x="0" y="35.333333333333336" font-family="Virgil, Segoe UI Emoji" font-size="16px" fill="#000000" text-anchor="start" style="white-space: pre;" direction="ltr">Class: &lt;class&gt;</text><text x="0" y="56" font-family="Virgil, Segoe UI Emoji" font-size="16px" fill="#000000" text-anchor="start" style="white-space: pre;" direction="ltr">Due: &lt;time&gt;</text></g><g transform="translate(470.03478640040066 268.5) rotate(0 66 41)"><path d="M0.9550688713788986 -1.8705096691846848 C40.12655638456344 -0.17735213845968278, 77.94286506474018 0.4000723877549168, 131.80457477271554 -1.371146246790886 M0.6329478994011879 -0.971948005259037 C47.93467777818441 0.5891564679145811, 98.00103320628403 0.5459009003639219, 132.33785269409415 0.48739662021398544 M130.78906039893624 -1.265482947230339 C134.15120385035868 16.295512448251248, 133.5744430814683 32.87892300486565, 131.7213757485151 80.52875657379627 M131.26574537903068 0.795191191136837 C132.45342020735143 31.239308944344526, 131.26715688452123 62.31760485917331, 132.71550033241508 81.91654600948095 M130.6864521950483 83.73390717804432 C99.21339913010596 81.67099148005246, 64.69669066965578 82.88266283243894, 1.7245262116193771 82.60476107895374 M131.73415229469535 81.26541724056005 C90.57014071196315 81.53412973821163, 48.11655545979737 79.94645583570004, 0.280564047396183 81.10713186115026 M0.6272247284650803 82.76486773788929 C1.3726294662058354 54.24841932803392, 1.6708992148935795 28.458487641811367, 1.2158816307783127 -0.17780070006847382 M-0.11979033797979355 81.60059537738562 C1.0905648954212666 51.89176605343819, 0.47923748567700386 22.23850160986185, -0.7108526453375816 0.43195690959692" stroke="#000000" stroke-width="1" fill="none"></path></g><g><g transform="translate(471.03478640040066 287.5) rotate(0 65.89570227981082 0.04160578690002126)"><path d="M0.5730413228273392 -1.1223058015108107 C22.653106954693797 -0.9075233091910679, 110.57763517200947 -0.13927859763304395, 132.37665527164935 0.12661778628826137 M-0.5852507120277732 0.9028797073569148 C21.378828087756407 1.347290756345416, 109.81727476836181 1.103676926832025, 131.62635382563806 1.2055173753108828" stroke="#000000" stroke-width="1" fill="none"></path></g></g><g transform="translate(477.03478640040066 268) rotate(0 19 10.5)"><text x="0" y="15" font-family="Virgil, Segoe UI Emoji" font-size="16px" fill="#000000" text-anchor="start" style="white-space: pre;" direction="ltr">Task</text></g><g transform="translate(476.03478640040066 291) rotate(0 57 31)"><text x="0" y="14.666666666666668" font-family="Virgil, Segoe UI Emoji" font-size="16px" fill="#000000" text-anchor="start" style="white-space: pre;" direction="ltr">&lt;description&gt;</text><text x="0" y="35.333333333333336" font-family="Virgil, Segoe UI Emoji" font-size="16px" fill="#000000" text-anchor="start" style="white-space: pre;" direction="ltr">Class: &lt;class&gt;</text><text x="0" y="56" font-family="Virgil, Segoe UI Emoji" font-size="16px" fill="#000000" text-anchor="start" style="white-space: pre;" direction="ltr">Due: &lt;time&gt;</text></g><g transform="translate(471.03478640040066 363.5) rotate(0 66 41)"><path d="M0.5145757645368576 -0.91327004134655 C47.931100070476525 -0.6177546176314352, 96.36500413715838 -1.8892833384871481, 133.62358789145944 0.21110863983631134 M0.03825686126947403 0.69695033878088 C29.69581664651632 -1.4049099230766295, 58.93562893420457 0.10338632822036753, 131.49194858223197 -0.14998707920312881 M130.63016824424264 0.8513178378343582 C134.34248436316844 25.25712662786246, 130.74724520072337 47.85185448527337, 132.08517341315743 81.40582652390003 M132.42344234138724 -0.014738894999027252 C133.03785101160403 19.464513126015664, 132.82164231523868 37.92828510552645, 131.86929867416617 82.91630067676306 M132.92000083625314 83.36036677658558 C80.76509457230566 81.01537577837705, 34.15784150660036 84.43180482119321, -0.3966767340898514 82.01736874878407 M132.8114735856652 82.64145364612341 C102.5235931560397 81.50381691396237, 73.9043910101056 81.35490186154843, -0.2033863291144371 82.33850731700659 M1.8484290093183517 83.51670880615711 C1.8229838944971561 54.9874690964818, -1.0290606878697872 30.6325000166893, -0.43573208153247833 -1.223307654261589 M-0.5727958902716637 82.56958069652319 C0.3484588630497456 51.12960270047188, 0.9840415485203267 19.70490638166666, -0.8371904119849205 -0.018376924097537994" stroke="#000000" stroke-width="1" fill="none"></path></g><g><g transform="translate(472.03478640040066 382.5) rotate(0 65.36839929581154 0.9474577388514263)"><path d="M0.30874545872211456 -0.54796202480793 C22.380281427502634 -0.4685463537772497, 109.81791084110738 0.8075444271167119, 131.72510049641133 0.9260622709989548 M-0.9883019047882409 1.7787539668288082 C20.96276915878989 2.016730613351489, 108.65869516373613 2.5475820395754027, 130.63273279340007 2.4246702144946903" stroke="#000000" stroke-width="1" fill="none"></path></g></g><g transform="translate(478.03478640040066 363) rotate(0 19 10.5)"><text x="0" y="15" font-family="Virgil, Segoe UI Emoji" font-size="16px" fill="#000000" text-anchor="start" style="white-space: pre;" direction="ltr">Task</text></g><g transform="translate(477.03478640040066 386) rotate(0 57 31)"><text x="0" y="14.666666666666668" font-family="Virgil, Segoe UI Emoji" font-size="16px" fill="#000000" text-anchor="start" style="white-space: pre;" direction="ltr">&lt;description&gt;</text><text x="0" y="35.333333333333336" font-family="Virgil, Segoe UI Emoji" font-size="16px" fill="#000000" text-anchor="start" style="white-space: pre;" direction="ltr">Class: &lt;class&gt;</text><text x="0" y="56" font-family="Virgil, Segoe UI Emoji" font-size="16px" fill="#000000" text-anchor="start" style="white-space: pre;" direction="ltr">Due: &lt;time&gt;</text></g><g transform="translate(794.5347864004007 172.5) rotate(0 46 43.5)"><path d="M-1.6057350188493729 1.564905121922493 C22.33751457333565 1.129132580459118, 47.22490173876286 -1.21255605250597, 93.96815137565136 0.6350540667772293 M-0.800887368619442 0.36582937091588974 C22.545907537639142 -0.17913254559040082, 43.62876354008913 -0.7610004788637162, 91.08906839042902 0.42027439922094345 M90.45007352530956 -0.5008597820997238 C90.95164316035807 16.277938436716795, 91.27861469127238 37.490772910416126, 91.01546077430248 86.30703635513783 M92.2223443761468 0.785380981862545 C91.1731263767928 33.59088868126273, 91.25777522437275 68.26617024540901, 91.14889834076166 87.47180690616369 M92.75531749427319 86.93076606094837 C56.96978770494461 89.49652267605066, 25.221168926358217 88.95411993175745, 0.9757798165082932 88.86752267181873 M92.89051172882318 86.89166202396154 C68.55785838216543 87.14636541843414, 44.266441912949084 87.77349711894989, 0.2601580396294594 87.08873095363379 M-1.6943976432085037 88.73136468231678 C-1.4276108071953058 69.23944185450674, 0.18747717879712578 48.60440684407949, -1.2334110289812088 -1.983779951930046 M0.9128432050347328 86.85435023158789 C-0.9820067649334668 57.27179904654622, 0.010097526982426719 26.87103344500065, -0.7038614973425865 -0.09833822399377823" stroke="#000000" stroke-width="1" fill="none"></path></g><g><g transform="translate(796.5347864004007 190.5) rotate(0 44.719277235274205 0.7339328673971721)"><path d="M0.29147718250751486 1.0950768202543257 C15.272647550702093 0.9699199408292769, 75.70091722309589 -0.02472393810749048, 90.4531904965639 -0.04154036343097678 M-1.0146360260155052 0.6243882055487484 C13.798627496669067 0.6378917126264424, 74.39527989626862 1.7158727826084945, 89.74307004363276 1.4740761969890448" stroke="#000000" stroke-width="1" fill="none"></path></g></g><g transform="translate(800.5347864004007 173) rotate(0 19 10.5)"><text x="0" y="15" font-family="Virgil, Segoe UI Emoji" font-size="16px" fill="#000000" text-anchor="start" style="white-space: pre;" direction="ltr">Task</text></g><g transform="translate(49.534786400400634 10) rotate(0 85 45.5)"><text x="0" y="32.5" font-family="Virgil, Segoe UI Emoji" font-size="36px" fill="#5f3dc4" text-anchor="start" style="white-space: pre;" direction="ltr">Long-term</text><text x="0" y="78" font-family="Virgil, Segoe UI Emoji" font-size="36px" fill="#5f3dc4" text-anchor="start" style="white-space: pre;" direction="ltr">projects</text></g><g><g transform="translate(87.53478640040063 118.5) rotate(0 51.03560542752197 88.28849182076289)"><path d="M0.5846427708864212 -0.3088065415620803 C-11.325088553627333 15.150427855054536, -100.8374601572752 63.2607481688261, -71.00056774318219 92.99446885287762 C-41.16367532908917 122.72818953692914, 137.84152407149475 164.2084551225106, 179.60599725544452 178.093517562747 M-0.5675585037376731 -1.5165339212212712 C-12.675420062433307 14.038166281819965, -101.8157456087973 64.36371774568222, -71.94891127198004 94.00399025185965 C-42.082076935162775 123.64426275803707, 136.70596849333182 162.48514162147106, 178.6334475171659 176.32510111584327" stroke="#5f3dc4" stroke-width="1" fill="none"></path></g><g transform="translate(87.53478640040063 118.5) rotate(0 51.03560542752197 88.28849182076289)"><path d="M148.220964638793 178.79826839501135 C157.16482126835143 177.16025494328704, 170.7732289877634 176.2907528001327, 177.4748533409927 177.8256230588164 M148.95277491798353 178.01225520158283 C157.9383917839552 178.69701236522516, 166.71152266873963 176.43912420242506, 178.42331291408277 176.91767568989656" stroke="#5f3dc4" stroke-width="1" fill="none"></path></g><g transform="translate(87.53478640040063 118.5) rotate(0 51.03560542752197 88.28849182076289)"><path d="M153.62539281520145 159.0014969796547 C160.78117183382577 164.08412561190053, 172.56206306617452 169.9089350538488, 177.4748533409927 177.8256230588164 M154.357203094392 158.21548378622617 C161.73573926640734 164.58165763722496, 168.970037793134 167.96061234561068, 178.42331291408277 176.91767568989656" stroke="#5f3dc4" stroke-width="1" fill="none"></path></g></g></svg>