<svg version="1.1" xmlns="http://www.w3.org/2000/svg" viewBox="0 0 3302.57194719799 2834" width="6605.14389439598" height="5668">
  <!-- svg-source:excalidraw -->
  
  <defs>
    <style>
      @font-face {
        font-family: "Virgil";
        src: url("https://excalidraw.com/FG_Virgil.woff2");
      }
      @font-face {
        font-family: "Cascadia";
        src: url("https://excalidraw.com/Cascadia.woff2");
      }
    </style>
  </defs>
  <rect x="0" y="0" width="3302.57194719799" height="2834" fill="#ffffff"></rect><g transform="translate(1105.6349206349205 107.23412698412699) rotate(0 137.7777777777778 241.11111111111114)"><path d="M1.5039483526940158 -1.4811631071560791 C58.92060185901648 0.8215346271638888, 118.47060931649173 -1.4869539972969272, 274.97247874374256 1.417048973929245 M0.6121868548915776 -0.3510915286511275 C65.62652053220165 -1.0422380413975885, 132.18923655427832 -2.3383196576177645, 275.77710344414436 0.2291220683060195 M275.37504167288074 -0.26888659896838285 C275.3340164433227 176.17515369908526, 275.3811456304204 351.7597203356437, 275.8222170917177 482.72561030172795 M275.46656435992816 -0.03400413259455747 C276.62521131777385 108.56499678736014, 276.5149869897613 217.0784663980173, 275.1703033250483 482.4830754037482 M275.4273570311303 483.1590976892032 C181.2368309156468 479.8514089859663, 83.11935317490008 479.327417750597, 1.2212736558781674 483.5887851172505 M275.1138807499563 482.24035313876243 C215.79796951465056 482.04272432324916, 154.5409862345851 480.9141372618119, -0.11385926162912509 481.79160412272444 M-0.5287486234635747 482.09087501200327 C0.6038765946641703 358.7766434209713, 0.6914004940802594 237.27739552903986, 0.5413305963911376 -0.7896936033925971 M-0.38888736389696404 482.27447955186733 C-1.7108861272107274 316.14738709365065, -2.005947685466936 149.5376297688855, -0.4031809840391259 -0.03208455264941043" stroke="#000000" stroke-width="1" fill="none"></path></g><g transform="translate(1106.7460317460318 106.1230158730159) rotate(0 136.66666666666666 23.888888888888886)"><path d="M0.36937448100242387 1.1179644680046699 C70.28011747772901 0.040333802883426806, 140.49841455853533 -0.3747901598954991, 274.2804397417293 -1.0122883176709747 M-0.7422684019126463 0.5359112746471631 C78.29203767054804 0.5420231473645195, 157.53538875550376 1.245760057139717, 273.5914114927321 -0.18052366161562314 M272.38801975858706 0.7684334237128496 C274.2834136075547 11.58648797341933, 272.14729573197866 23.922214108208816, 273.63597716701526 48.69827343875335 M273.9296971320485 -0.9230722198262811 C273.7441916358657 16.612362230403555, 273.17850108863786 35.473967601959075, 274.1793723165368 46.925535992512266 M274.15398307957093 46.29516641342766 C207.4135905219711 46.1870171347996, 139.83189268053104 44.94585975000072, -1.176989745733764 48.914345463254634 M273.5037016866338 47.78465194597545 C168.32540775507894 46.19599039438273, 61.84116640865098 45.69234533102484, 0.2975130234032701 47.24515847703215 M0.06543183140456676 46.23771150762008 C-0.7266787427270578 31.66144014636261, -0.599593951066749 12.589778846750654, -1.2524715084582567 1.9478152114897966 M-0.5483206948265433 47.789517805704634 C0.38957165677307387 34.97125046803719, -1.1710319916510747 23.156583250914178, 0.363099561072886 -0.8210874507203698" stroke="#000000" stroke-width="1" fill="none"></path></g><g transform="translate(1113.5847643395168 561.1869670041174) rotate(0 9.500078745160536 9.13469110111589)"><path d="M0.7466477067810671 -1.8673051101764633 C6.489029274535385 -1.5922529826635954, 12.341752352144315 1.2628704476226156, 18.608904356359826 -0.023484063810958578 M0.622994751563919 -0.8696229382516247 C3.989280473608647 0.10728690254296337, 9.688128092500067 -0.7499177452254108, 18.185320924911753 -0.7498281591767184 M20.715393873315854 -0.6646969730210899 C17.95158874414908 6.866534200242929, 18.902125427547745 10.986614538332839, 18.62861730070093 16.878458759446193 M18.868874676203557 0.49596568800351515 C19.53368121752038 4.625124515774203, 19.47727104737771 7.9826508510583665, 19.59301405627073 18.88839558256628 M19.921952185538377 19.65230420312693 C11.468484975445268 17.46688379194981, 4.215804104805705 16.600293824819417, -0.389423584027232 19.159378547374224 M19.48519166276199 17.459844775531476 C12.085405581236962 18.79686316844884, 4.870748435578277 18.74152664417979, 0.8584470976554434 18.92576248692336 M1.3384556167038013 19.01723613898477 C-0.7761298218130029 12.255353515374871, 0.33990135486618434 10.634161665695853, -1.4900163089161156 -1.6733939437654723 M0.6854250988959906 18.573162768850846 C0.7339560608374694 13.538872354804495, -0.6219986333887224 6.810280972732271, 0.8418817437796585 0.05988334353812874" stroke="#000000" stroke-width="1" fill="none"></path></g><g><g transform="translate(1114.2430256512393 560.6214219159167) rotate(0 4.50347560737525 -8.291072702070792)"><path d="M-0.8225659858435392 -0.48270265348255637 C0.9850899870825947 -3.1086056402692255, 8.333293493903248 -13.52661631721708, 9.829517200594031 -16.099442750659023 M0.9464481422491371 -1.781725491899997 C2.7777881596555947 -4.1751173689769265, 8.418083446781159 -12.450800947674393, 9.438083952316278 -14.573770366102641" stroke="#000000" stroke-width="1" fill="none"></path></g></g><g><g transform="translate(1122.4371329534792 544.3058599189274) rotate(0 5.601160405526699 8.291012489635591)"><path d="M0.7803624618798495 0.8763974022120238 C2.63955437719102 3.665033824629492, 9.851674480700261 13.657320066724747, 11.47140678602608 16.29112288623694 M-0.26908597497269504 0.29090209303423764 C1.385075003739698 2.7311979558499218, 8.23475769749037 11.887277742118417, 10.407337465112676 14.280933075301533" stroke="#000000" stroke-width="1" fill="none"></path></g></g><g transform="translate(1115.6349206349207 111.67857142857144) rotate(0 110.55555555555554 18.333333333333343)"><path d="M0.27534695491215216 1.2416125644960143 C65.65577880119925 1.8673357494525546, 128.26978054149498 2.874059206450307, 221.0647283629129 -0.875470274593737 M0.6119704706961383 -0.6631690267120768 C74.00966393733215 -2.512634274507611, 147.01134546248753 -1.502397415111094, 221.59614779090728 -0.010593557348208502 M219.5246931362069 -1.9820665996521711 C220.79626583898852 14.300514231435956, 221.36903124893496 27.76843022182584, 219.23328477620248 36.11165429341297 M221.7816505954704 -0.3885504910722375 C221.6575090810139 12.286387548471494, 220.58675738418887 24.860403003481533, 221.6147751436672 37.03318218297015 M221.48997363292992 36.24512938402452 C151.87805873976447 33.65830486607033, 84.19808172180882 34.2187370708937, 0.9876295438595676 36.60977031184913 M221.07849967440865 36.390525603026774 C153.49591810694722 36.53708188573406, 85.46607293748265 36.64010398407177, 0.45779877145539416 36.32971958999547 M0.2642055135220289 38.131009888524815 C1.4169001723018786 24.397791617549956, 1.1853633666721484 12.364190732439358, -0.9205782432109118 -1.2323780339211226 M-0.47382648196071386 36.58855594104777 C-0.453512644674629 24.89336046824853, -0.5274171887896955 14.667249735134344, -0.44117610063403845 -0.011553705669939518" stroke="#000000" stroke-width="1" fill="none"></path></g><g><g transform="translate(1105.6349206349207 536.1230158730157) rotate(0 137.5736996979763 0.4362118667364143)"><path d="M-1.0474831391125916 0.14139189608395109 C44.8829841154731 0.2817935574799777, 229.95517417635355 0.19044453985989102, 276.19488253506523 0.10818346627056608 M0.603449483513832 -0.8299813038110733 C46.28105742461152 -0.4115010219812392, 229.18635508331988 1.434004711508751, 274.99915040234725 1.7024050372838975" stroke="#000000" stroke-width="1" fill="none"></path></g></g><g transform="translate(1142.3015873015875 550.956349206349) rotate(0 22.5 13)"><text x="0" y="18" font-family="Virgil, Segoe UI Emoji" font-size="20px" fill="#000000" text-anchor="start" style="white-space: pre;" direction="ltr">Home</text></g><g><g transform="translate(1204.5238095238096 536.1230158730157) rotate(0 -0.0515509282160167 22.58634646637573)"><path d="M-0.9019936490803957 0.6645652402192355 C-1.0929100473583806 7.820585444886929, -0.18555185440235755 36.833843550182614, -0.28240048839811593 43.93491342220871 M0.8253209558129311 -0.032141954004764495 C0.4733743818490636 7.806267717425473, -0.25047433580511247 37.87074375780646, -0.7953728751010112 45.204834886756224" stroke="#000000" stroke-width="1" fill="none"></path></g></g><g transform="translate(1213.4126984126985 550.4563492063492) rotate(0 23 13)"><text x="0" y="18" font-family="Virgil, Segoe UI Emoji" font-size="20px" fill="#000000" text-anchor="start" style="white-space: pre;" direction="ltr">Work</text></g><g transform="translate(1276.7460317460318 550.456349206349) rotate(0 49 13)"><text x="0" y="18" font-family="Virgil, Segoe UI Emoji" font-size="20px" fill="#000000" text-anchor="start" style="white-space: pre;" direction="ltr">Timetable</text></g><g><g transform="translate(1268.968253968254 533.9007936507936) rotate(0 0.9110549564576331 27.601804359939152)"><path d="M-0.7369225513190031 0.8115252804011106 C-0.25582733840027083 9.884474006860897, 2.110316783175934 46.13107031717621, 2.5590324642343147 55.01163661260573 M1.0770543798990548 0.19197210727259506 C1.458258846343521 8.858697774435775, 1.7923920031684821 44.0140145774717, 1.7878123776634856 53.186837752111686" stroke="#000000" stroke-width="1" fill="none"></path></g></g><g><g transform="translate(1346.7460317460318 119.45634920634927) rotate(0 11.1610003625984 0.0551859769038856)"><path d="M0.287564705684781 -0.5640918899327516 C4.0563313256673155 -0.3120601940900087, 19.816909549619822 0.23346229307353505, 23.342603278367005 0.31396116726100454 M-1.0206025531701743 1.7541559225134553 C2.62430080904659 1.7328720068745316, 18.82494597199541 -1.550393214840442, 22.98275786921584 -1.643783968705684" stroke="#000000" stroke-width="1" fill="none"></path></g></g><g><g transform="translate(1347.857142857143 130.56746031746036) rotate(0 10.822719700747257 0.13208058058731353)"><path d="M0.7201652873307467 -0.9014152575284242 C4.192048896449023 -1.0892009902745485, 18.5077277521154 -0.881085043027997, 22.006326067654573 -0.7232771325856446 M-0.3608866661600769 1.2397377869300543 C2.831270104488695 1.1577322926931082, 17.438443730801165 0.4099220976047218, 20.94493512287938 0.43442762402817614" stroke="#000000" stroke-width="1" fill="none"></path></g></g><g><g transform="translate(1347.857142857143 139.45634920634924) rotate(0 10.62404617714796 -0.17832049649209125)"><path d="M0.6823981594294308 0.04155381806194791 C4.422684035050088 0.2995744217187167, 18.25031107091513 0.5582967389374971, 21.666573890505514 0.6993797052651642 M-0.4184815362095833 -0.9822343727946282 C3.182988690855318 -0.9943852040171623, 16.435883291970757 -1.0550206848978996, 20.426813052727066 -1.05602069824934" stroke="#000000" stroke-width="1" fill="none"></path></g></g><g transform="translate(1122.3015873015875 118.23412698412699) rotate(0 41.5 13)"><text x="0" y="18" font-family="Virgil, Segoe UI Emoji" font-size="20px" fill="#000000" text-anchor="start" style="white-space: pre;" direction="ltr">Search...</text></g><g><g transform="translate(1106.7460317460318 530.5674603174602) rotate(0 135.920919692061 -188.12409045955891)"><path d="M-1.1347432862967253 0.006827170774340585 C44.289834134873956 -62.357216239403236, 227.30862794517085 -311.92416235869405, 272.9765826704187 -374.6223606608394 M0.4703777590580285 -1.0351925099082293 C45.76539259308673 -63.68487985111704, 227.09481652521077 -313.8952152532305, 272.4245764420947 -376.25500808989216" stroke="#000000" stroke-width="1" fill="none"></path></g></g><g><g transform="translate(1108.968253968254 155.0119047619048) rotate(0 135.38651733352904 189.8069019413688)"><path d="M-0.9847780834883451 0.5771319340914487 C44.211563329991904 63.97350203992317, 226.06532303689525 316.808313973317, 271.7578127505464 379.7792816285872 M0.6990746933408083 -0.16547774584963926 C45.646029615641595 62.95557663596684, 225.19877654009048 314.85236670864197, 270.56595231428946 378.1241630681501" stroke="#000000" stroke-width="1" fill="none"></path></g></g><g transform="translate(1861.1904761904766 65.96428571428578) rotate(0 620.7142857142857 344.99999999999994)"><path d="M0.35125616863369946 0.28651611730456356 C261.73479649858285 2.883754730698254, 524.1926417906902 3.1797477965322996, 1242.0718979144735 -0.3871990211308003 M0.2348867651075125 -0.18096149526536465 C483.55200397018353 -3.4461604681132108, 967.3983932547274 -3.3180486407397063, 1241.8242999805404 -0.18706790767610074 M1241.230814960067 -0.3024911887943745 C1244.0566855236411 145.5621183341369, 1243.9157572313666 291.7799497503787, 1241.968552544181 689.8284315817057 M1241.7954960597947 -0.1811262305825949 C1241.9108304798126 191.7823093554005, 1242.0466138779639 383.33366646543146, 1241.51574908628 690.1527152482419 M1241.993161728446 690.5383652441202 C956.8276571798805 691.1753409294517, 671.546857984098 691.1752967028053, -0.757351528853178 690.2843507282435 M1241.0564916743233 690.1381826821713 C947.3361355204935 686.2240900344241, 653.3832106258188 686.0170051760066, 0.3788125392049551 690.0600799623876 M-0.7719330184161663 690.4212680332362 C-1.9597350323572749 461.59804684314867, -2.7456172430887813 234.60124090574675, 0.3481303103268147 -0.20179021432995797 M0.34935554228723054 689.7413817469029 C-0.7712965585663916 467.09030712712547, -1.3542349316552282 244.35344797670837, -0.23265049494802953 0.12795836366713048" stroke="#000000" stroke-width="1" fill="none"></path></g><g transform="translate(1861.1904761904766 65.96428571428578) rotate(0 620.7142857142857 27.142857142857167)"><path d="M0.4168520577251911 0.26567845270037654 C400.049370495842 4.042323573960791, 799.1982593258045 3.0301951493163206, 1241.2060843492195 -0.47380740717053416 M0.31052406989037995 -0.2926223214715719 C254.53176335764255 3.2789780590417132, 509.6239373225187 2.997582516420101, 1241.2005846394493 -0.3502977188676596 M1243.3046347474947 -0.5475322622805834 C1239.580275974343 22.47991168658649, 1243.083189389775 41.04012960701118, 1241.0369467711344 54.17187513437656 M1241.7943690069287 -0.585095121525228 C1242.16503121028 18.001481473046763, 1241.8874042488103 37.31845147734776, 1240.566987390098 54.76259312339661 M1241.56540892369 54.768441145015636 C940.5129682308065 52.11843238276565, 640.3982358203936 52.6973272125157, -0.7503516785800457 54.859837548328315 M1241.7925362361862 54.43094265413073 C883.8142186158736 51.38184335365361, 526.7020261023727 51.74242397680348, 0.32656402550637725 54.6577895040491 M-0.8998054545372725 55.77661831703571 C-0.4353462925180792 43.77318471989463, -0.397234665416181 32.020664742748664, -0.6439300458878279 0.8527549486607313 M0.3477098932489753 54.5899713069999 C0.34692482735429475 40.45504379072893, -0.5874308786221915 25.692416422468217, -0.7775923321023583 0.8405370870605111" stroke="#000000" stroke-width="1" fill="none"></path></g><g transform="translate(1871.666666666667 72.75000000000034) rotate(0 347.5000000000001 20)"><path d="M0.06551362350583077 -0.7918797500431538 C204.42114871898676 -0.2745627486146991, 408.0663475656884 -1.0681197010912005, 695.5815684683623 -0.7084636934101582 M-0.26926287449896336 0.011785060539841652 C221.52584504215056 0.3275428556092085, 442.9681815812366 0.014022221434861494, 694.7152739044282 -0.01335936151444912 M695.0411399323496 1.8656744342297316 C696.9672950409355 10.844949835911395, 695.6034062407913 21.871281435713176, 695.6925765592607 39.36309206299484 M694.3610800495373 0.6950712064281106 C695.001241152175 12.475217481143773, 694.2517113434153 23.55576448980719, 694.9269742658364 40.97478617820889 M694.579758704454 39.33242268487811 C492.5746434270406 37.16003280485049, 291.40230479147294 38.17224520051852, -0.2915872685611248 39.9909592859447 M695.1449826117607 40.05565229095519 C452.116008390952 37.57896029917523, 209.5935157222674 37.416449033897365, -0.23631389178335668 40.09212972559035 M-1.4553785603493452 39.4215133767575 C-0.1280884727835655 27.483071805909276, -0.6381755456328392 17.130138581618663, 0.9254319984465837 -0.47200298495590687 M-0.8217682251706719 40.42600278649479 C-0.546245021186769 28.760264706797898, -0.12157095726579425 16.314177849330004, 0.21400323417037725 0.1501166382804513" stroke="#000000" stroke-width="1" fill="none"></path></g><g transform="translate(1878.3333333333335 80.41666666666703) rotate(0 41.50000000000006 13)"><text x="0" y="18" font-family="Virgil, Segoe UI Emoji" font-size="20px" fill="#000000" text-anchor="start" style="white-space: pre;" direction="ltr">Search...</text></g><g transform="translate(2583.333333333334 80.41666666666697) rotate(0 22.5 13)"><text x="0" y="18" font-family="Virgil, Segoe UI Emoji" font-size="20px" fill="#000000" text-anchor="start" style="white-space: pre;" direction="ltr">Home</text></g><g><g transform="translate(2575.000000000001 67.75000000000034) rotate(0 -0.4735233858374386 26.70106901258231)"><path d="M0.2195064615458251 -0.20359472148120406 C0.09939841739833366 8.827672901625434, 0.126431066915393 44.78736440626284, 0.27919938080012807 53.833310602977875 M-1.1243913754820825 -1.3560858955979347 C-1.4655774316191674 7.808464977840582, -0.870811491906643 45.38180750777324, -0.5222664079070092 54.75822392076254" stroke="#000000" stroke-width="1" fill="none"></path></g></g><g><g transform="translate(2646.666666666667 67.75000000000034) rotate(0 -0.17448886954537102 26.86854334560533)"><path d="M0.49611949436366554 0.9841124285012481 C0.29305696850850227 9.878244256331689, 0.039302803865772784 44.61223231680277, -0.3648457663009139 53.28191918308536 M-0.7025565004348755 0.45516750812530526 C-1.0603584705458677 9.021585662840968, -0.45423373990585175 43.169727916713384, -0.8450972334543438 51.58334821986655" stroke="#000000" stroke-width="1" fill="none"></path></g></g><g transform="translate(2656.666666666668 80.41666666666697) rotate(0 22 13)"><text x="0" y="18" font-family="Virgil, Segoe UI Emoji" font-size="20px" fill="#000000" text-anchor="start" style="white-space: pre;" direction="ltr">Menu</text></g><g><g transform="translate(2713.333333333334 67.75000000000034) rotate(0 -0.008621226623631628 23.95251770188409)"><path d="M-1.1081194806843995 1.1645478833466767 C-0.9195696879178284 8.829372296275363, 1.0627516578882934 38.574166814693136, 1.090877027437091 45.99165808248022 M0.5109790626168249 0.7303315767645837 C0.6404962077736852 8.54022322134839, 0.55707740932703 39.55251451396279, 0.7155420032143591 47.174703827003626" stroke="#000000" stroke-width="1" fill="none"></path></g></g><g transform="translate(2723.333333333334 82.08333333333366) rotate(0 23 13)"><text x="0" y="18" font-family="Virgil, Segoe UI Emoji" font-size="20px" fill="#000000" text-anchor="start" style="white-space: pre;" direction="ltr">Work</text></g><g><g transform="translate(2786.666666666667 67.75000000000034) rotate(0 1.2346762350450717 27.289875190332538)"><path d="M-0.5848728943616152 -1.1994837295264005 C-0.09583766017520545 8.164750125880044, 2.5329021511393726 46.24195986477038, 3.0542253644517587 55.77923411019147 M1.3089301067590715 0.7851833671331407 C1.6050208834145059 9.84750774482886, 1.3407235782015263 45.16006558199723, 1.959648217161648 54.065757269263266" stroke="#000000" stroke-width="1" fill="none"></path></g></g><g transform="translate(2798.333333333334 78.75000000000028) rotate(0 49 13)"><text x="0" y="18" font-family="Virgil, Segoe UI Emoji" font-size="20px" fill="#000000" text-anchor="start" style="white-space: pre;" direction="ltr">Timetable</text></g><g><g transform="translate(2913.333333333334 69.41666666666697) rotate(0 -0.16309964541346744 22.884465142724423)"><path d="M-1.0008160639554262 -0.7922231923788785 C-1.055523793771863 6.988728616179694, 0.180640859529376 37.803819231399245, 0.19428067915141578 45.58932998465997 M0.6746167731285095 1.4062556862831115 C0.43316619634628295 9.393241609202494, -0.7881415581703187 38.9877344494396, -0.6517674279212953 46.56115347782773" stroke="#000000" stroke-width="1" fill="none"></path></g></g><g transform="translate(2925.000000000001 80.41666666666703) rotate(0 39.5 13)"><text x="0" y="18" font-family="Virgil, Segoe UI Emoji" font-size="20px" fill="#000000" text-anchor="start" style="white-space: pre;" direction="ltr">Settings</text></g><g><g transform="translate(3016.666666666667 67.75000000000034) rotate(0 0.5543027425774198 25.736538245830076)"><path d="M0.48827862627804275 -0.7024309325963258 C0.6096044277565094 7.815332235685653, 1.5438898366771203 42.30630624737176, 1.8231193094202354 50.992185031498465 M-0.7145138242654503 1.5431888824515045 C-0.8333465991562693 10.216312128949081, 0.561646465313391 43.666527148797684, 0.9572114832387342 52.175507424256445" stroke="#000000" stroke-width="1" fill="none"></path></g></g><g transform="translate(3028.333333333334 77.08333333333371) rotate(0 27.5 13)"><text x="0" y="18" font-family="Virgil, Segoe UI Emoji" font-size="20px" fill="#000000" text-anchor="start" style="white-space: pre;" direction="ltr">v0.2.4</text></g><g><g transform="translate(1863.3333333333337 754.416666666667) rotate(0 619.3210378458725 -316.56322078617916)"><path d="M-0.07466123588383189 0.8274826515465976 C206.73933093460897 -104.7786777123395, 1033.4931090624382 -528.4435581562834, 1240.215072805807 -633.9539242239049 M-1.5729971140623094 0.21630709826946237 C205.16031965712708 -105.21205304178929, 1032.5133724512657 -527.0395160667765, 1239.3799405652285 -632.7423091902336" stroke="#000000" stroke-width="1" fill="none"></path></g></g><g><g transform="translate(1865.0000000000005 124.41666666666697) rotate(0 617.0858410060375 314.3077651944291)"><path d="M0.7207063425332307 -1.1841395784169435 C206.66456776480706 103.72835278026758, 1029.0575419520753 523.6964575123042, 1234.5317435690513 628.860488338396 M-0.3600615569762886 0.8085831975750626 C205.62963915651252 105.87950179276989, 1028.665799274629 524.7656744944863, 1234.2128634791761 629.7996699672751" stroke="#000000" stroke-width="1" fill="none"></path></g></g><g transform="translate(1106.6666666666667 532.7499999999999) rotate(0 137.5 27.49999999999997)"><path d="M0.6464896089064851 0.44955952494420853 C88.88957579772378 3.3385304360010686, 181.52752385150842 0.7652112351145808, 273.57894742818354 1.0847298473335727 M-0.5042306464862115 0.35177546408139543 C105.58272479117647 0.2898162060397463, 211.53721570303276 0.8878177666709022, 274.7305446932859 0.11866560337232425 M276.83655569143593 0.37978130392730236 C274.97169819935226 11.64296633796765, 273.1927131162491 27.726767140440614, 275.80910971947014 55.535268543288055 M274.06331437733024 -0.7516918918117881 C274.30483748023397 21.860634146723875, 276.15357236568815 43.99888582155104, 275.7345495512709 54.441389397717955 M275.1555554734013 55.96702455346235 C210.05124191415354 54.92066049866561, 147.5546997750489 54.276819670841256, -0.2106955948186144 55.140478510663115 M274.689595853895 54.635439366497806 C218.34532839392136 53.8504517450309, 162.09540014227213 53.928689328481575, 0.18894253866071625 55.66893169143479 M-1.0304843466728926 56.49010175280267 C0.8133811077568679 36.22551276115696, -0.7785502949263902 17.10905418638138, -1.0788005273789167 1.2197428923100233 M0.8929363479837775 55.93045352492476 C0.4428456585388625 43.19336563674729, -0.2340446848887956 31.444422623142565, -0.6904385397210717 -0.15875087585300207" stroke="#e67700" stroke-width="4" fill="none"></path></g><g transform="translate(2573.3333333333335 66.08333333333326) rotate(0 264.16666666666686 27.5)"><path d="M0.22855519130825996 0.5876396410167217 C109.48291851105171 -2.5180915407029296, 219.85328601170337 -1.8218207649079468, 528.4136237589023 0.4991326324641705 M-0.2845114950090647 -0.054375582560896876 C107.77013585235306 0.34431318789099685, 215.74648691980798 0.5855918243465328, 528.1731172995022 -0.1881690677255392 M527.3847821870199 0.4876162987202406 C529.7433112672377 18.65784695046022, 527.6108773163367 33.68891553860156, 527.3028489866606 56.4901017528027 M528.3835800777501 -0.5394002636894584 C529.0040436928938 17.53427858510985, 527.4473649507235 37.524416517466285, 529.2262696813173 55.930453524924786 M528.009152099242 54.447649168223116 C373.821962349893 54.15405724532279, 219.90492717207724 52.886907916137304, 0.17506529167294504 54.37669434472916 M528.4681034879139 54.89013175405559 C342.32688503324374 54.17264986679576, 157.0236544783538 53.82023572371028, 0.019916903600096705 54.8088536802679 M1.5772959310561419 56.651888011023374 C-2.1349738860037175 33.530118170659975, -0.37539810179732713 12.342794665135436, -0.535639313980937 0.1546748261898756 M-0.7686317274346948 54.377884999848874 C0.08110437053255726 42.21174238948149, -0.23160731536336254 31.45748122595249, 0.19072466995567083 0.4705434301868081" stroke="#e67700" stroke-width="4" fill="none"></path></g><g transform="translate(1113.3333333333335 109.41666666666657) rotate(0 112.50000000000003 20)"><path d="M-0.5072860987716913 -1.5107618083118197 C50.606303721098655 0.31843452463202193, 102.94205113313208 -0.5706302506250884, 223.7992912152199 0.13876187763559816 M-0.7773594604017137 -0.5842410511291622 C67.36218638008498 -0.35839884205959727, 134.7490390270292 0.4337664906678348, 224.98374024115358 -0.3849632775562405 M223.42270770855254 -1.4762004632502794 C223.10710233673458 10.472723657265306, 223.82668483480816 20.130996456369758, 224.73666760511702 40.68196660093963 M225.08041760232305 -0.16191826667636633 C225.0361684547738 10.931964565999806, 225.92619266975677 21.710433923639357, 225.49954420235014 39.49819164071232 M224.2564257549805 41.20089866105616 C174.0316092920991 39.092484327396114, 125.01773966356822 38.06000108705111, 0.40691406970441335 40.72032270173991 M225.48012944359385 40.40376371632308 C169.19785470676968 37.99408404934774, 114.46093496780922 39.35162485875974, 0.5460819436109661 39.68905204494971 M1.465499671176076 41.134627340361476 C1.2950223460793495 28.07357913441956, -1.5496842488646507 14.068925505504009, -0.8704389613121748 -0.9591014999896288 M-0.5834201285615563 39.72697420511395 C1.1664741868153214 29.792389017529786, 0.858692997135222 18.46359396819025, 0.2520558824762702 0.9895030120387673" stroke="#5c940d" stroke-width="4" fill="none"></path></g><g transform="translate(1871.6666666666667 71.08333333333326) rotate(0 346.66666666666674 22.5)"><path d="M-0.08751385286450386 -0.3811916224658489 C152.81972584749266 2.21395239725709, 306.91385443334786 2.0032029379904275, 693.318971712639 -0.44979253932833674 M0.20495066083967686 0.37334939204156403 C213.924123666063 0.07959571900467069, 426.95051751174043 -0.43674643216033787, 693.580631103491 -0.28933672942221167 M693.9035164893917 -0.68887391500175 C693.0153917205366 12.02484902599826, 694.4873823654684 22.036028708331276, 693.1789244593433 43.52924362011251 M692.6508649348593 0.5679372539743781 C694.4442091133292 16.65350323403253, 693.1827406730349 32.32769130729137, 694.0866439401484 44.056301563046844 M693.8318086219332 44.5006559975445 C434.6950022044282 46.86542501861848, 175.3417155317962 46.898198203394784, -0.7892382629215717 45.27981051281092 M693.4194841408482 45.185629546269745 C525.5076235685499 47.24143370650705, 358.63005903201804 47.26056900285181, 0.0756910625845194 45.083282017335264 M0.7576558571308851 45.8058795649558 C1.0420596421230581 31.325843041297027, 1.4032295167911795 14.661451735533763, 0.34513276629149914 -0.09623834304511547 M0.6892197886481881 44.32841783668843 C-0.17913435869850203 35.426219079177805, 0.6499333185609432 25.27444661408661, -0.4569084784016013 0.5708390763029456" stroke="#5c940d" stroke-width="4" fill="none"></path></g><g transform="translate(1341.666666666667 110.91666666666663) rotate(0 18.333333333333314 18.33333333333333)"><path d="M1.1187864523380995 0.9408408123999834 C8.373461332482586 -1.0952981273022793, 19.22908645371594 2.068011864057431, 37.939134099210264 -0.7245636861771345 M0.732749835588038 0.567313670180738 C12.873064957559098 0.9691168709658082, 23.525603323243537 0.5530946000479158, 36.23144718601054 -0.4795507499948144 M35.499826409543516 -0.5460515897721052 C37.848642573536644 9.985159705393016, 37.233080194176445 17.727951277047396, 37.17077843161917 38.64567269074419 M36.93231364681071 -0.9546214649453759 C36.203315762461436 12.478439714138704, 37.138989923180354 24.50546356259534, 37.17729389263934 37.15349159544954 M35.145609535897734 37.71790732132891 C27.84180451401817 38.0274625477381, 16.79849563166497 36.76381254764273, 1.0076810698956251 38.439591598386556 M37.639718886154355 36.87035355872163 C24.261104791735583 37.32337844343855, 12.15966755431144 36.17115965457632, -0.10909975972026587 36.31216520971307 M0.32292049936950207 36.36209173190096 C1.7411010111061236 26.688558273948722, -1.1702186619552473 15.889324819048241, 1.3761318903416395 -0.737521318718791 M-0.43028224911540747 36.51221961683282 C0.9172834099270403 27.28980462998151, 1.0818603874184192 18.219640886721503, 0.3353908220306039 -0.34962976071983576" stroke="#e67700" stroke-width="4" fill="none"></path></g><g transform="translate(2577.5 10) rotate(0 126 23)"><text x="0" y="32" font-family="Virgil, Segoe UI Emoji" font-size="36px" fill="#e67700" text-anchor="start" style="white-space: pre;" direction="ltr">Navigation bar</text></g><g transform="translate(1879.9999999999998 15.5) rotate(0 59.5 23)"><text x="0" y="32" font-family="Virgil, Segoe UI Emoji" font-size="36px" fill="#5c940d" text-anchor="start" style="white-space: pre;" direction="ltr">Search</text></g><g transform="translate(1117.9999999999995 58.5) rotate(0 59.5 23)"><text x="0" y="32" font-family="Virgil, Segoe UI Emoji" font-size="36px" fill="#5c940d" text-anchor="start" style="white-space: pre;" direction="ltr">Search</text></g><g transform="translate(1096.4999999999998 606) rotate(0 126 23)"><text x="0" y="32" font-family="Virgil, Segoe UI Emoji" font-size="36px" fill="#e67700" text-anchor="start" style="white-space: pre;" direction="ltr">Navigation bar</text></g><g transform="translate(1392.4999999999998 107.5) rotate(0 135 53.5)"><text x="0" y="24.666666666666664" font-family="Virgil, Segoe UI Emoji" font-size="28px" fill="#e67700" text-anchor="start" style="white-space: pre;" direction="ltr">This might need to</text><text x="0" y="60.33333333333333" font-family="Virgil, Segoe UI Emoji" font-size="28px" fill="#e67700" text-anchor="start" style="white-space: pre;" direction="ltr">move in order to be</text><text x="0" y="96" font-family="Virgil, Segoe UI Emoji" font-size="28px" fill="#e67700" text-anchor="start" style="white-space: pre;" direction="ltr">more ergonomic.</text></g><g transform="translate(2352.5 419) rotate(0 156 23)"><text x="0" y="32" font-family="Virgil, Segoe UI Emoji" font-size="36px" fill="#5f3dc4" text-anchor="start" style="white-space: pre;" direction="ltr">BODY CONTENT</text></g><g transform="translate(1128.9999999999998 318.5) rotate(0 121 18)"><text x="0" y="25" font-family="Virgil, Segoe UI Emoji" font-size="28px" fill="#5f3dc4" text-anchor="start" style="white-space: pre;" direction="ltr">BODY CONTENT</text></g><g><g transform="translate(1102.4999999999998 836.5) rotate(0 -65.16800096420572 -181.77633482702075)"><path d="M-0.5837577234953641 -0.1690708447247744 C-22.57759386015435 -36.2998901773244, -130.23874179236591 -155.8383926281084, -131.31874570958317 -216.37414728887373 C-132.39874962680042 -276.90990194963905, -27.80055142355462 -339.2177664050211, -7.063781226798892 -363.3835988093167 M1.3106307423301042 -1.3034369835443795 C-20.79424065488701 -37.777318717557925, -130.16145010231062 -157.70122196964294, -131.64663267074152 -217.9056493643112 C-133.13181523917243 -278.11007675897946, -28.485696636618425 -338.2923462080148, -7.6004646682553 -362.5300013515539" stroke="#5f3dc4" stroke-width="4" fill="none"></path></g><g transform="translate(1102.4999999999998 836.5) rotate(0 -65.16800096420572 -181.77633482702075)"><path d="M-22.839325700998582 -334.55574730483363 C-15.47998124399652 -344.92257719236216, -13.538909878086898 -353.84434762833183, -5.71570085933432 -363.09618092695246 M-23.37810913484571 -336.17088253961424 C-17.14686179773573 -346.58522847357006, -10.04696254304104 -357.25599205702133, -7.8220299157686535 -361.70606406865636" stroke="#5f3dc4" stroke-width="4" fill="none"></path></g><g transform="translate(1102.4999999999998 836.5) rotate(0 -65.16800096420572 -181.77633482702075)"><path d="M-36.05604577640746 -350.2541011304462 C-23.968352782757112 -355.0042971959119, -17.352669484354564 -358.37372849667935, -5.71570085933432 -363.09618092695246 M-36.59482921025459 -351.8692363652268 C-24.982945883724454 -356.1412103351967, -12.632231462853941 -360.57524091066904, -7.8220299157686535 -361.70606406865636" stroke="#5f3dc4" stroke-width="4" fill="none"></path></g></g><g transform="translate(1117.4999999999998 836.5) rotate(0 108 23)"><text x="0" y="32" font-family="Virgil, Segoe UI Emoji" font-size="36px" fill="#5f3dc4" text-anchor="start" style="white-space: pre;" direction="ltr">Small screen</text></g><g><g transform="translate(3095 1091.5) rotate(0 97.09011627919972 -198.92516017444427)"><path d="M-1.161791468784213 -0.035989682748913676 C31.29466243870556 -32.132754577075445, 192.38023806301254 -125.96179365403951, 195.34202402718364 -192.25818381793798 C198.30380999135474 -258.5545739818364, 46.29185919252535 -363.781584275638, 16.608924316242337 -397.81433066613965 M0.42912928076460943 -1.100488211531192 C32.704700200874356 -33.60993692717825, 191.47249417714156 -128.32690853418782, 194.57354117782788 -194.2538050711341 C197.6745881785142 -260.1807016080804, 48.571479552903526 -362.62716846070555, 19.035411284882574 -396.6618674332089" stroke="#5f3dc4" stroke-width="4" fill="none"></path></g><g transform="translate(3095 1091.5) rotate(0 97.09011627919972 -198.92516017444427)"><path d="M46.806176912247466 -384.89140589057905 C37.490677612648575 -391.1392463097231, 26.815349441619464 -394.0033237377418, 20.777641016636043 -397.4904859615303 M47.26191196704589 -386.1045757158424 C35.5268332561603 -389.13956558420085, 24.304188737708635 -394.1012633055933, 19.688240841608494 -395.92633471636094" stroke="#5f3dc4" stroke-width="4" fill="none"></path></g><g transform="translate(3095 1091.5) rotate(0 97.09011627919972 -198.92516017444427)"><path d="M33.09552650268935 -369.6225464789294 C28.541502898992626 -381.0859463970295, 22.668673465417946 -389.2983242963153, 20.777641016636043 -397.4904859615303 M33.55126155748778 -370.8357163041927 C27.091169530244976 -379.8581523354567, 21.184843006337726 -390.74036510329313, 19.688240841608494 -395.92633471636094" stroke="#5f3dc4" stroke-width="4" fill="none"></path></g></g><g transform="translate(2855 1083) rotate(0 114 23)"><text x="0" y="32" font-family="Virgil, Segoe UI Emoji" font-size="36px" fill="#5f3dc4" text-anchor="start" style="white-space: pre;" direction="ltr">Large screen</text></g><g transform="translate(1512.4999999999998 1006.75) rotate(0 148 23)"><text x="0" y="32" font-family="Virgil, Segoe UI Emoji" font-size="36px" fill="#0b7285" text-anchor="start" style="white-space: pre;" direction="ltr">Search interface</text></g><g transform="translate(1562.4999999999998 1087.75) rotate(0 248.75 482.5)"><path d="M-0.5346251220230962 0.616998823118111 C193.74688885873218 0.21161794286947833, 389.4255907103466 -0.0486092249187291, 497.6618541570001 0.7814805534571017 M0.30147841267321535 0.17924614877969489 C100.47725691773404 1.9244634727273864, 201.3864731728969 1.6411226732515676, 497.55114532948323 -0.22091051542534954 M497.8861421830952 -0.5306798107922077 C497.7531600673683 252.97359806625175, 498.7928924043663 505.745636410825, 497.19984603002666 964.2677154175938 M497.3298439081758 -0.004708444699645042 C495.1413959353231 373.1643712976017, 495.6213857620023 745.9958415580915, 497.63134903274477 965.3491596225649 M497.49956986766875 965.2503342385795 C362.30771063444 963.681877085375, 227.2204784196534 964.2108927264591, -0.4358711375296618 965.7951883056915 M497.482918329291 964.8167132071212 C361.1940826835559 966.9952127454673, 225.05963942799855 966.9669963114222, -0.14261382422100471 965.1527270278806 M0.4840702779591084 965.1563873641193 C-2.302771459091455 707.32915083291, -2.2067479233630003 449.3702118786052, -0.2411647789180279 0.33495684787631036 M-0.1550824347883463 964.6157903317362 C0.08369910592213262 590.8692102639936, -0.2976475847326221 216.70389278475196, 0.17881938777863982 -0.209332537278533" stroke="#000000" stroke-width="1" fill="none"></path></g><g transform="translate(1574.9999999999998 1099.25) rotate(0 100.5 18)"><text x="0" y="25" font-family="Virgil, Segoe UI Emoji" font-size="28px" fill="#000000" text-anchor="start" style="white-space: pre;" direction="ltr">Search results</text></g><g><g transform="translate(1564.9999999999998 1142.75) rotate(0 247.77787946236327 1.5249687859695769)"><path d="M0.8651973176747558 -0.8602785218507052 C83.49381824024022 -0.5830586978544792, 413.2340142894536 1.6870995492984853, 495.69547174461184 2.416584159061313 M-0.13971281988546247 1.3024713088385762 C82.39841279821471 1.7108492886337143, 412.55575292246414 3.842653600902607, 495.11254894690586 3.9102160937897863" stroke="#000000" stroke-width="1" fill="none"></path></g></g><g transform="translate(1574.9999999999998 1165.25) rotate(0 232.5 123.75)"><path d="M-0.26373429925924535 0.07780045696550605 C175.57236944836436 0.09340418828496178, 353.03126259045814 -0.6424831861371114, 465.4634293297138 -0.8087773870038388 M0.05800502451375126 -0.08138169671252368 C170.63192925920572 1.9516135784598958, 341.26331974051027 1.603013626465, 465.34242245601416 0.11987826077935097 M465.2660134222793 0.12306284248000568 C466.89553464848797 51.487118487537074, 466.16001331943704 103.52644282943443, 464.82534387171086 247.94190335515606 M465.7770464666185 -0.1541078565119365 C466.7283122013247 75.65550370569086, 465.54087807790296 153.2077761053103, 464.436653004526 247.31431147695133 M465.6953642301406 247.75238511817844 C338.3565491913965 248.66604529491798, 212.04323715259136 249.1756286484012, 0.5787059390696881 247.7863528329249 M464.80204700496154 247.08217649755284 C364.8147689235136 246.13522390699984, 265.2914553171938 246.12340957640387, 0.04760001855424045 247.4246876317415 M-1.2563643275859075 248.88183110065168 C-0.8019125509413019 193.88222790347905, -2.0344376776416433 140.40484541156957, -0.65831093907121 0.8041760936172027 M-0.008969251877485773 247.9281706218842 C-1.1986478594996175 156.419559943604, -2.3824827750451107 67.05013353505252, 0.24372121239301653 -0.6948905766979018" stroke="#000000" stroke-width="1" fill="none"></path></g><g transform="translate(1574.9999999999998 1436.5) rotate(0 232.5 123.75)"><path d="M-0.6774810098400711 -0.39590599007695904 C153.19219533656224 -1.3014611960088325, 308.47641919266914 -0.3927595092126444, 465.3971058485641 0.0952000371084809 M0.41000808782723536 -0.3507284915170967 C132.2439492770394 -1.454408771252619, 263.59883667087195 -1.7984822768058644, 464.80408351252225 -0.18377503845027085 M466.53158562560327 -0.017938503754971545 C467.17220345130875 87.28416861776685, 464.717862318831 171.29084946182476, 465.22602751827026 247.98744242478602 M465.0503713719379 0.26393281445358596 C464.3095940726133 54.03041736206278, 463.974944427794 106.81772871812744, 465.13572215326985 247.31047848788174 M464.86808291103927 247.87791077770333 C310.29116347548177 247.68202664520072, 157.20280203009762 246.87035352474592, 0.248938642368257 248.12536575813584 M465.3973610961681 247.08464112895678 C338.43840532924287 248.5849869121075, 212.74680255795366 248.9171794517813, 0.42266623772099604 247.75252103020475 M0.7629499500446002 248.15777060290074 C1.3297182446368552 156.30363044819572, 1.1943660031084038 64.54357537210586, 0.01788197259059362 -0.3019530794553142 M-0.3601228166642477 246.93509480009573 C1.0276942227058157 194.73184251813257, 0.7338663897056028 142.18801264685877, 0.14747814035928342 -0.7105607170297958" stroke="#000000" stroke-width="1" fill="none"></path></g><g transform="translate(1572.4999999999998 1704) rotate(0 232.5 123.75)"><path d="M0.28478325036340946 0.445366292140901 C152.03609244513933 0.3601189479919745, 304.80964780110907 -0.2685894448894187, 465.60000599996096 0.09922411544984577 M-0.1313365120668709 -0.009925979926556347 C128.97680217881503 -1.0566142914977923, 257.1071755561899 -1.8420395156656157, 465.08274932393454 0.09386364346840975 M466.1605936613706 -1.5764279779864268 C465.93782764612547 97.42280943154506, 467.5314156318451 192.69860758487957, 465.55159470440594 246.7435363803502 M464.282728806264 -0.3700108291516294 C464.85915496277465 82.02383483082141, 464.45722374117656 164.87983271552685, 464.8536256361291 247.3180895875553 M465.1739915684367 247.03778400708765 C330.09513373506326 245.6886787577024, 192.866700269915 245.96525091230635, -0.8511120568436978 246.63816009785265 M464.98615385279174 247.29320411087278 C322.38141339074593 245.40440388063007, 180.44165498042736 245.41381775674301, 0.1628979260368049 247.71481172261002 M0.009426885076524689 246.1798135289233 C1.2021562539878936 154.6868418118596, 1.0381002709384413 66.68239802353546, -0.8611291227266172 1.0819608634524027 M0.11007748985080326 247.18483858812505 C1.5287249877540323 152.09784852855, 1.651349742758468 56.24045655534068, 0.5954058530391594 -0.3318839467346957" stroke="#000000" stroke-width="1" fill="none"></path></g><g transform="translate(1584.9999999999998 1172.75) rotate(0 52.5 18)"><text x="0" y="25" font-family="Virgil, Segoe UI Emoji" font-size="28px" fill="#000000" text-anchor="start" style="white-space: pre;" direction="ltr">Result 1</text></g><g transform="translate(1584.9999999999998 1447.25) rotate(0 60.5 18)"><text x="0" y="25" font-family="Virgil, Segoe UI Emoji" font-size="28px" fill="#000000" text-anchor="start" style="white-space: pre;" direction="ltr">Result 2</text></g><g transform="translate(1582.4999999999998 1712.25) rotate(0 60 18)"><text x="0" y="25" font-family="Virgil, Segoe UI Emoji" font-size="28px" fill="#000000" text-anchor="start" style="white-space: pre;" direction="ltr">Result 3</text></g><g><g transform="translate(1574.9999999999998 1217.75) rotate(0 235.851787032336 0.17183789089324364)"><path d="M0.8957268130034206 -0.7710095118731259 C79.12561336470147 -0.6506058286875486, 391.06032798799373 0.625641779974103, 469.3998523723334 0.6738649059087038 M-0.09315533950924881 1.4386065490543842 C78.53440036301811 1.2165899141132832, 393.33838131273785 -0.9523194973170758, 471.79672940418124 -1.0949307672679425" stroke="#000000" stroke-width="1" fill="none"></path></g></g><g><g transform="translate(1579.9999999999998 1492.75) rotate(0 229.931620011814 1.7598943389579063)"><path d="M1.0445900570601225 -0.5933556508272886 C77.59680301460126 -0.17168218207856012, 383.3793689460804 1.8683962473024924, 459.72937891595063 2.5496518541127444 M0.13386110767722137 1.7095286871492865 C76.46796457911532 2.338198475191991, 381.72991877382003 4.119131065358719, 458.63925738319756 4.1131443287432194" stroke="#000000" stroke-width="1" fill="none"></path></g></g><g><g transform="translate(1577.4999999999998 1752.75) rotate(0 230.00538437254733 1.6193048017006504)"><path d="M-0.3218185376375914 0.697369695827365 C76.2128828852127 1.419752102221052, 383.6614482530703 2.9186239571621018, 460.3325872827321 3.2207247626036404 M1.7100880007632075 0.01788484079763286 C78.01748638179774 0.49513575874889887, 383.3800897169796 0.8407283228946228, 459.5591501425393 1.4765305141918361" stroke="#000000" stroke-width="1" fill="none"></path></g></g><g><g transform="translate(1562.4999999999998 1980.25) rotate(0 248.4887733329088 -0.8810420285732334)"><path d="M-0.5758096050471068 -0.5054452288895845 C82.18207640337447 -0.6065993774682283, 414.64859564391276 0.27699397914111606, 497.5533562708646 0.36055090539157386 M1.3227516229636969 -1.816407919395715 C83.83925649699444 -2.3763002477772535, 414.2292394880143 -2.094007393587381, 496.6333228494413 -1.5727346180565656" stroke="#000000" stroke-width="1" fill="none"></path></g></g><g transform="translate(1709.9999999999998 2000.25) rotate(0 77.5 18)"><text x="0" y="25" font-family="Virgil, Segoe UI Emoji" font-size="28px" fill="#000000" text-anchor="start" style="white-space: pre;" direction="ltr">Add filters</text></g><g><g transform="translate(1872.4999999999998 2042.75) rotate(0 258.3946924059279 -115.57834731393154)"><path d="M0.39946026094257836 0.7462559591978788 C34.71265861677626 32.860757073884216, 155.82143275029958 250.9969563773523, 205.92140644080936 192.91030430905522 C256.0213801313192 134.82365224075815, 249.08129117178422 -243.34384680477285, 300.99930240400136 -347.77365645058455 C352.9173136362185 -452.20346609639626, 481.3542201448232 -419.5227225729575, 517.4294738341123 -433.6685535658151 M-0.8499618314020336 0.09243639243766655 C33.38214437243218 31.81766834053521, 155.18906607525423 248.78518526368464, 205.45709935860708 191.00313932253047 C255.72513264195993 133.2210933813763, 248.72786332127328 -242.56961881763607, 300.75823786871507 -346.5998392544873 C352.78861241615687 -450.6300596913385, 481.7733872200735 -418.88883316583315, 517.6393466432579 -433.17818329857664" stroke="#000000" stroke-width="1" fill="none"></path></g><g transform="translate(1872.4999999999998 2042.75) rotate(0 258.3946924059279 -115.57834731393154)"><path d="M491.86733079903877 -418.59843217736386 C499.4829137140733 -422.51764814544, 506.5427540351874 -428.2598072616417, 515.6917573668994 -433.2601423990168 M491.2573788977892 -419.5866573962038 C498.36205414760286 -424.16340588088923, 506.0814530453044 -426.9171127528132, 517.2163210193627 -433.04807434512304" stroke="#000000" stroke-width="1" fill="none"></path></g><g transform="translate(1872.4999999999998 2042.75) rotate(0 258.3946924059279 -115.57834731393154)"><path d="M489.8032526983698 -439.0155716435128 C498.08331301187343 -436.74468873126574, 505.7696382425472 -436.2898779906718, 515.6917573668994 -433.2601423990168 M489.19330079712023 -440.0037968623528 C497.04175523597314 -438.7231519549719, 505.3548101023232 -435.60462138448554, 517.2163210193627 -433.04807434512304" stroke="#000000" stroke-width="1" fill="none"></path></g></g><g transform="translate(2403.75 1210.2500000000002) rotate(0 248.75 482.5)"><path d="M0.08458924370718932 0.17087898973645826 C188.98177479434776 0.9903285657491745, 378.50898772365997 0.8781862614863576, 498.1414682016855 0.4765395606516208 M0.2702579477646155 -0.3752874542438341 C149.33909499316968 -1.6816416974873614, 297.68123922227056 -1.4273486103665005, 497.20693403876896 0.1807934163411604 M497.5132326371968 0.3526301257312298 C497.80425541954116 316.4214767131024, 498.4114682252892 633.4674587680028, 497.42937789037825 965.6001464478671 M497.16920395456253 0.14409068860113622 C499.7711443941854 297.90136661315336, 499.1994252364896 595.8913455558941, 497.3655821260065 965.3148044589907 M496.8498518452154 965.798484394944 C357.9356308345819 963.4871015333114, 216.94452285020296 963.2612888660458, 0.3722722845971081 965.3921817870071 M497.611029679568 965.326200425631 C367.56038811873276 964.7230079889501, 237.71938713166907 965.0272179024394, 0.03556619243777822 965.1946271639928 M-0.4136439554393292 964.3926269881428 C0.6899967141263187 601.9234047544189, 0.9472507186047733 239.23185509759932, -0.3551876060664654 0.3390675656497479 M0.22636745534837246 964.783437121287 C3.241581872645766 587.1863317697309, 2.9616511976160114 209.84080150667577, -0.08548267520964146 0.06578495539724827" stroke="#000000" stroke-width="1" fill="none"></path></g><g><g transform="translate(2405 1282.75) rotate(0 248.90938844457264 1.7696079681813899)"><path d="M0.03720409981906414 0.6791023660451174 C82.66297395738462 1.2158969132850568, 414.04072154474756 2.0696865090479455, 496.85031136386095 2.179844932630658 M-1.4024024771153927 -0.009972837120294509 C81.52262526685993 0.7942565956215064, 416.3522314867874 3.206098714520534, 499.22117936626074 3.549188773483038" stroke="#000000" stroke-width="1" fill="none"></path></g></g><g><g transform="translate(2482.5 1245.25) rotate(0 -29.244800913063727 -0.3527126479893923)"><path d="M0.7070624638348817 0.2121917735785246 C-8.813179198031625 0.11026514880359173, -48.307459746922056 -0.7727770078927279, -57.99089759103954 -0.9176170695573092 M-0.3808684719912707 -0.7220114906318487 C-10.026008295149852 -0.6730818452127278, -49.57624498300875 -0.034908148813992845, -59.1966642899625 0.13805922014638772" stroke="#000000" stroke-width="1" fill="none"></path></g><g transform="translate(2482.5 1245.25) rotate(0 -29.244800913063727 -0.3527126479893923)"><path d="M-31.99496579096487 -10.963339815099062 C-40.013373916019624 -7.46968148933113, -45.687926015785756 -5.871492951090441, -59.91032375341281 -0.917900989893824 M-32.03887219932696 -10.369577861573816 C-40.08229937033658 -6.791669939989843, -46.841088344314 -3.8744658608921236, -58.27375990377739 -0.3443152384273709" stroke="#000000" stroke-width="1" fill="none"></path></g><g transform="translate(2482.5 1245.25) rotate(0 -29.244800913063727 -0.3527126479893923)"><path d="M-31.66627830235239 8.70007149890668 C-39.70932686954817 7.721335299094567, -45.45867050301092 4.845192623542458, -59.91032375341281 -0.917900989893824 M-31.71018471071448 9.293833452431926 C-39.894148939147456 7.221831305036776, -46.747348482798635 4.491014305749989, -58.27375990377739 -0.3443152384273709" stroke="#000000" stroke-width="1" fill="none"></path></g></g><g transform="translate(2497.5 1227.75) rotate(0 57.5 18)"><text x="0" y="25" font-family="Virgil, Segoe UI Emoji" font-size="28px" fill="#000000" text-anchor="start" style="white-space: pre;" direction="ltr">Go back</text></g><g transform="translate(2420 1297.75) rotate(0 45 18)"><text x="0" y="25" font-family="Virgil, Segoe UI Emoji" font-size="28px" fill="#000000" text-anchor="start" style="white-space: pre;" direction="ltr">Filters</text></g><g><g transform="translate(2405 1345.25) rotate(0 249.48815568346538 2.2432519991695585)"><path d="M-0.08733898289501663 0.8599566746503113 C83.48639522505303 1.2672418682525555, 417.2883950045953 2.3319334873308737, 500.56864204518496 2.620163123682141 M-1.592330678254366 0.26582998350262654 C81.94959270005425 0.8725576519469422, 416.55118351305526 3.6060253564020006, 499.9191336552799 4.2206740148365505" stroke="#000000" stroke-width="1" fill="none"></path></g></g><g transform="translate(2432.5 1405.25) rotate(0 208.75 32.49999999999994)"><path d="M-0.2261226266673114 -0.7322518577893171 C121.34959903690019 -1.4688115141954596, 241.63170105783806 -0.5627705153214512, 417.11990493505357 0.803419972145697 M0.06509547718680929 0.32030928447142704 C120.02159650061206 -1.6358118506898653, 238.91956752746577 -2.0707981103125883, 417.99420771830046 -0.20788991935401688 M415.9282181877643 0.5201415698975325 C417.88652090975086 20.779510989319498, 419.079761969531 40.654814780689705, 416.4082709569484 66.14736285619426 M417.39429725613445 -0.3771491339430213 C418.20374416480774 19.96247329516333, 417.922132275207 40.920352293178375, 417.4337694486603 65.98505628202099 M417.59850682401924 64.70954223382327 C306.96611973606133 66.96860473892204, 197.0075737116505 66.3145106246712, 0.9738630139941069 65.10228850953999 M417.3840004991532 64.6901046244577 C311.02348172873616 66.79584874790258, 203.47673072877637 66.26887763990455, 0.4230675037460727 65.05636332667817 M0.3940925020724535 64.23916753940273 C1.3308647883590319 44.66609616251655, -0.6432716237846753 21.60092693101611, -1.1475183945149183 0.13957837037742138 M0.2615178367123008 64.72749593947071 C0.2787587557453657 40.27192188287147, 0.540827057184651 15.911472070962155, 0.2230462273582816 0.664440811611712" stroke="#000000" stroke-width="1" fill="none"></path></g><g transform="translate(2437.5 1365.25) rotate(0 73.5 18)"><text x="0" y="25" font-family="Virgil, Segoe UI Emoji" font-size="28px" fill="#000000" text-anchor="start" style="white-space: pre;" direction="ltr">Start time</text></g><g transform="translate(2431.25 1532.7499999999998) rotate(0 208.75 32.5)"><path d="M0.9901609491224493 0.0004350897541735321 C144.39462687980063 1.0729945370168508, 290.37352353388843 -0.42432381249745466, 416.6426554166631 0.534397745984206 M0.5165957377350376 0.21974620800442526 C152.92465871883473 -0.9465433096448201, 304.85033711436796 -0.7824883734430987, 417.59158823321894 0.033035711586396205 M417.1514511387795 -0.8020799737423658 C415.81997686005195 12.161948346067197, 417.7071086106356 27.715273006819142, 415.9955246131867 66.4686031360178 M417.9088439354673 -0.6943910578265786 C416.6320702910889 16.294899598229648, 417.35310240392573 31.29744918830687, 418.0133160063997 65.27694491948921 M417.3379999938334 65.99734233413417 C275.74577905874514 64.93007626194888, 132.63489117799907 64.36750307652378, -0.22895860199944115 64.95830288497557 M417.4863532152775 65.16362466008927 C314.3211555085353 66.6801805148344, 210.96555307126806 66.8387460673863, -0.2821663639666093 64.47863496779989 M0.04249325208365917 64.19177133031178 C1.3615385586861533 49.3278862941078, -0.40957477740012005 37.39765795040869, 0.9938627164810896 -1.2528127413243055 M0.6100676069036126 65.57345284428436 C-0.821994222374633 40.08114056056358, -0.08583492753095934 16.92893047258255, -0.31234440114349127 0.8234124025329947" stroke="#000000" stroke-width="1" fill="none"></path></g><g transform="translate(2436.25 1492.7499999999998) rotate(0 58 18)"><text x="0" y="25" font-family="Virgil, Segoe UI Emoji" font-size="28px" fill="#000000" text-anchor="start" style="white-space: pre;" direction="ltr">End time</text></g><g transform="translate(2428.75 1652.7499999999998) rotate(0 208.75 32.5)"><path d="M-0.889280086202314 0.36799892809494394 C118.01816059306363 0.5404335940438851, 236.7373784564822 0.7803781219897017, 417.63696188494623 0.7136482397766317 M0.1254766151107056 -0.1234619911296619 C141.87562048584982 2.4092084927398263, 284.7873112737747 2.3527190798788067, 417.8443244479888 -0.1386411331856204 M418.44689315743744 -0.520397337153554 C418.0032441759948 18.094351753126798, 418.0255219484214 35.98506939504289, 415.722649814561 66.52919867448497 M417.4340348979458 -0.2014412572607398 C417.9269626982044 18.80993782682341, 416.72781121204605 37.903501702472504, 418.47284142579883 65.0284647354855 M416.87993272954316 65.11972777781757 C292.13387640032374 67.77111944828414, 164.55258878174618 68.03032961139613, -0.05913436514615081 65.43290003015402 M417.1660703985784 64.93464977870052 C267.0612950696239 62.90747646239538, 116.50189370222763 63.58058712974791, 0.39264265252850483 64.71811020345707 M-0.1686152797192335 65.77183267287899 C1.4130238634999837 47.63928959937758, 2.1456097108777605 27.635620350949416, 1.4685343522578478 -0.3782821614295244 M0.1377842565998435 65.98385033104557 C-1.1893525894265613 45.58310691500074, 0.3120364670176069 25.823447216302107, 0.19422803726047277 -0.41841339971870184" stroke="#000000" stroke-width="1" fill="none"></path></g><g transform="translate(2433.75 1612.7499999999998) rotate(0 56 18)"><text x="0" y="25" font-family="Virgil, Segoe UI Emoji" font-size="28px" fill="#000000" text-anchor="start" style="white-space: pre;" direction="ltr">In class</text></g><g transform="translate(2431.25 1772.7500000000005) rotate(0 208.75 32.499999999999886)"><path d="M-1.0427300643999966 -0.8237986522442009 C117.88552502954103 1.2086410290867249, 233.70249280459436 0.7436661121800701, 418.5716037847306 -0.6200672704568412 M-0.3366589718805207 0.39667835538558194 C129.8708014355073 -0.8985809031614715, 260.1286150211531 -0.8068315543420668, 417.03900464648336 -0.33392960142158434 M419.146824805066 1.8801653403788805 C419.3017411691602 17.660637774039028, 417.5806289774831 36.56367070879781, 416.63686957769096 64.83138472028065 M418.4337691972032 -0.027081803418695927 C418.6031267539132 21.819315106142273, 417.8397523954976 44.98411621339611, 417.3965452918783 65.13778425659973 M418.51116940593585 64.40349392914523 C251.38302245381348 64.31220390745739, 85.67270385357975 64.05525561643192, -0.24592959407375192 64.81772446591992 M417.78317819778727 64.91865538881312 C275.6431525491529 63.8708034924872, 133.5819859201461 63.41400913789359, 0.14373704153299796 64.91578183934506 M-0.42168584652245045 65.80250251479436 C1.3078034768346702 46.33450990496195, 0.24741592505015486 25.602969397790673, -1.2424359042197466 -1.6235325913876295 M0.11724117491394281 64.34875427093345 C-0.18129077223129586 49.716547457035546, 1.0506256255786863 35.06357247754925, -0.3188760867342353 -0.4675827482715249" stroke="#000000" stroke-width="1" fill="none"></path></g><g transform="translate(2436.25 1732.7500000000005) rotate(0 110.5 18)"><text x="0" y="25" font-family="Virgil, Segoe UI Emoji" font-size="28px" fill="#000000" text-anchor="start" style="white-space: pre;" direction="ltr">Related to user</text></g><g transform="translate(1585 1225.5) rotate(0 133.5 71.5)"><text x="0" y="24.75" font-family="Virgil, Segoe UI Emoji" font-size="28px" fill="#000000" text-anchor="start" style="white-space: pre;" direction="ltr">Type: sync task</text><text x="0" y="60.5" font-family="Virgil, Segoe UI Emoji" font-size="28px" fill="#000000" text-anchor="start" style="white-space: pre;" direction="ltr">Start time: &lt;time&gt;</text><text x="0" y="96.25" font-family="Virgil, Segoe UI Emoji" font-size="28px" fill="#000000" text-anchor="start" style="white-space: pre;" direction="ltr">End time: &lt;time&gt;</text><text x="0" y="132" font-family="Virgil, Segoe UI Emoji" font-size="28px" fill="#000000" text-anchor="start" style="white-space: pre;" direction="ltr">Relevant part: "..." </text></g><g transform="translate(727.5 1170.5) rotate(0 213.5 114)"><text x="0" y="32.6" font-family="Virgil, Segoe UI Emoji" font-size="36px" fill="#364fc7" text-anchor="start" style="white-space: pre;" direction="ltr">Search language</text><text x="0" y="78.2" font-family="Virgil, Segoe UI Emoji" font-size="36px" fill="#364fc7" text-anchor="start" style="white-space: pre;" direction="ltr"></text><text x="0" y="123.80000000000001" font-family="Virgil, Segoe UI Emoji" font-size="36px" fill="#364fc7" text-anchor="start" style="white-space: pre;" direction="ltr">term := text | specifier</text><text x="0" y="169.4" font-family="Virgil, Segoe UI Emoji" font-size="36px" fill="#364fc7" text-anchor="start" style="white-space: pre;" direction="ltr">specifier := text : text</text><text x="0" y="215" font-family="Virgil, Segoe UI Emoji" font-size="36px" fill="#364fc7" text-anchor="start" style="white-space: pre;" direction="ltr">text = [a-zA-Z0-9]+ </text></g><g transform="translate(700 1156.5) rotate(0 250 133.75)"><path d="M0.04771279753434284 -0.4753902197360358 C144.7174628725027 2.0147861472029325, 288.0429531280092 1.1068080366929411, 500.46682919881795 0.43096014197129373 M-0.3221814205267708 -0.1858262477569002 C144.0793374814747 -1.2869329271944685, 288.9545022027835 -0.7632221397035641, 499.6131352666116 0.17065060891747283 M498.92166207372446 -1.0135392463285195 C500.7110738439557 56.364254565383526, 501.3936952628166 112.33464063351762, 499.6390930621796 268.03686447061204 M500.49713579650387 0.03362303726593498 C497.42576718752827 99.42986218060155, 497.794184377232 197.89293394091962, 499.65182060368267 268.1853203663343 M500.70030767157186 268.03019844462904 C370.0141955873951 268.9332493199394, 239.20730341691072 269.38606501298017, -0.4822876142859495 267.952578802926 M500.0634272028812 267.2998062778773 C322.36339185677065 266.0964133110298, 145.38722959034345 265.5352895454392, -0.10646412010845353 267.52235824483836 M0.3529441044457722 266.87212570187205 C-2.236387236949051 170.9711048081346, -2.3474940342022426 76.11840961259166, 0.8393390187775063 -0.9154045909873115 M-0.7328767236261301 266.8853338430662 C-0.9309105884076263 208.57832355540575, -0.16176021517690092 149.96897340700562, 0.14847162827429825 -0.6324615713480626" stroke="#000000" stroke-width="1" fill="none"></path></g><g><g transform="translate(942.5 1436.5) rotate(0 -200.1660469582605 186.2015604068862)"><path d="M0.7314592491835354 -0.5305826615542173 C-65.11154416290422 28.23504578359425, -352.23254132274417 109.79079384091739, -393.9556558836251 172.03484153039753 C-435.6787704445061 234.27888921987767, -273.7178195844775 339.4492508938788, -249.6072281161023 372.9337034753267 M-0.34366337433457383 1.8052574957907201 C-66.34976486658057 30.783458622843025, -352.74823430549236 111.79482360492887, -394.3554206861556 173.3280585850775 C-435.9626070668188 234.86129356522616, -273.68708098525167 338.09217412627027, -249.98678165831396 371.00466737668256" stroke="#000000" stroke-width="1" fill="none"></path></g><g transform="translate(942.5 1436.5) rotate(0 -200.1660469582605 186.2015604068862)"><path d="M-278.55907273003396 361.1964142944882 C-267.65390655002363 365.0384912911832, -254.71609949458133 370.08925913671465, -248.66106680379042 372.58641008245985 M-278.2777273002037 360.02165763063675 C-268.3401394779172 361.9376177150183, -260.9605373283248 366.69410436454007, -250.4873485571591 370.1398932231147" stroke="#000000" stroke-width="1" fill="none"></path></g><g transform="translate(942.5 1436.5) rotate(0 -200.1660469582605 186.2015604068862)"><path d="M-264.65787174674625 346.10083170857644 C-259.2703931789869 355.9430544722904, -251.77996239412906 366.9092334012241, -248.66106680379042 372.58641008245985 M-264.376526316916 344.926075044725 C-258.73549885122344 351.6984646419031, -255.73626979044056 361.2116830154483, -250.4873485571591 370.1398932231147" stroke="#000000" stroke-width="1" fill="none"></path></g></g><g transform="translate(700 1729) rotate(0 112.5 66.25)"><path d="M-0.016525120886206626 -1.1779982980800867 C90.00862476667335 0.5489416246838124, 178.42636513238233 0.1101700622944386, 225.37805425384295 1.5138472530330418 M-0.31923305019170045 0.29145019642716646 C52.59373122412685 1.486860140264973, 107.19716334433163 1.405787216595158, 224.23476190193958 -0.8372874749729037 M224.96688005141914 1.2669620532542467 C226.91422966148238 51.02401712466961, 224.5800116958795 104.57721668155861, 225.54729500226676 130.97705441899592 M224.3406570861116 0.858203693293035 C224.34673483290243 52.266121668508255, 224.24275759973096 105.47791747422885, 224.1292808065191 132.01381148304785 M226.40757293795932 134.10864823401673 C174.2122066044216 130.5437964723084, 127.38765600684577 133.1986538281319, -1.3453497974189519 133.83378478976852 M225.5181214293577 131.7609565258987 C157.33992991746553 134.79762207030114, 90.05954281005332 134.73633331838425, -0.014241487285435199 131.6923672447574 M-1.7713541109114885 131.46571219153697 C2.179216757905669 81.36048420215954, 0.6087507759453727 31.712167299818233, -1.6926519591361284 1.997280539944768 M0.1117984363809228 133.12232254352415 C-0.42505621791351555 100.73276275419626, -0.5501001167343926 69.40947093209249, -0.29754346515983343 -0.7206067303195596" stroke="#000000" stroke-width="1" fill="none"></path></g><g transform="translate(750 1768) rotate(0 59 23)"><text x="0" y="32" font-family="Virgil, Segoe UI Emoji" font-size="36px" fill="#000000" text-anchor="start" style="white-space: pre;" direction="ltr">Parser</text></g><g><g transform="translate(932.5 1796.5) rotate(0 -29.129633529983494 204.50656907614325)"><path d="M0.1933859121054411 -1.0686367582529783 C30.57728870424131 2.3197090992083154, 209.95882352304955 -13.596385541682444, 181.53504237048327 19.730265598371624 C153.111261217917 53.05691673842569, -100.1764825531592 143.06067645239332, -170.3493010032922 198.89127008207143 C-240.5221194534252 254.72186371174953, -253.82029985475043 319.47237800844016, -239.50186833031475 354.7138273764402 C-225.18343680587907 389.9552767444402, -110.07448791948457 401.0603052267184, -84.43871185667813 410.33996629007163 M-1.164225213378668 0.9847249983251096 C29.65445525581638 4.606320179154476, 212.09608700369796 -11.980911162843302, 183.7403941513598 21.126080288738013 C155.38470129902163 54.23307174031933, -100.84274160926542 143.86977914954224, -171.2983823274076 199.626673707813 C-241.7540230455498 255.38356826608378, -253.2740057792763 320.45369522079824, -238.99345015749336 355.66744763836266 C-224.7128945357104 390.8812000559271, -111.34133018081387 401.9275086004039, -85.61504859670997 410.9091882131994" stroke="#000000" stroke-width="1" fill="none"></path></g><g transform="translate(932.5 1796.5) rotate(0 -29.129633529983494 204.50656907614325)"><path d="M-117.13732663079652 413.2328493292743 C-108.76817004871394 413.28320291611055, -103.1484966335902 413.7677793503038, -86.09200296930969 411.8446684520692 M-115.12591296437684 414.1819410738835 C-106.41075217295335 413.5249818299296, -94.99874728510524 411.2546911976995, -85.56660679828376 411.2432400448248" stroke="#000000" stroke-width="1" fill="none"></path></g><g transform="translate(932.5 1796.5) rotate(0 -29.129633529983494 204.50656907614325)"><path d="M-112.70659562037415 393.19566826258927 C-105.4831074285228 397.9813117919299, -100.90894829957473 403.194037827313, -86.09200296930969 411.8446684520692 M-110.69518195395446 394.14476000719844 C-103.54951365050916 400.0810850320352, -93.59225299778097 404.38961256237184, -85.56660679828376 411.2432400448248" stroke="#000000" stroke-width="1" fill="none"></path></g></g><g transform="translate(852.5 2141.5) rotate(0 125 63.75)"><path d="M-0.9470951889122015 1.2059920191130524 C90.24674740368927 1.7235377140803063, 178.60447497939546 2.2658632755392514, 248.42751456909187 -0.9472033664564005 M-0.6103634101889784 -0.33072123218300375 C62.84734058216554 1.1535303787862126, 127.86063243968768 0.310656587368912, 250.77798035928177 0.1587988904523011 M251.55337396077812 -1.0855392795056105 C250.40522020489442 44.379544279305264, 251.4858753624605 90.03097007749602, 251.02098640613258 127.53481042571366 M250.84083139989525 -0.2274956563487649 C251.44464262265245 39.648008404532455, 250.7764630808262 80.33297501271592, 250.78743413183838 127.73297797050327 M249.42122356645103 128.06518415739225 C172.90543539699794 126.47085521985609, 95.5579340463429 127.39217429558963, -1.3558930510102993 128.7683666818341 M249.30181279095058 127.79041197596584 C165.28199424808602 127.94131757040024, 79.71097561543303 127.39863334588128, -0.5032669417263325 127.52968792820242 M-0.1958961207419634 127.39835566468537 C0.8579107765806839 78.02387296897359, 0.1374985818518326 29.984780364204184, 0.7005455177277327 0.03268623538315296 M0.36483568046242 128.48313160147518 C0.7886774261714891 77.50315041816793, 0.9355518241645768 27.56963129388167, 0.8093346068635583 -0.6091920891776681" stroke="#000000" stroke-width="1" fill="none"></path></g><g transform="translate(910 2185.5) rotate(0 56 23)"><text x="0" y="32" font-family="Virgil, Segoe UI Emoji" font-size="36px" fill="#000000" text-anchor="start" style="white-space: pre;" direction="ltr">Visitor</text></g><g><g transform="translate(1110 2206.5) rotate(0 -41.31863147320597 -107.6265429980624)"><path d="M0.3973865043371916 -0.9560491394251585 C12.528748962407311 -13.858835636700194, 99.30900077136855 -55.60709860237937, 72.65199080817402 -77.5516986321658 C45.994980844979494 -99.49629866195222, -148.7066354541729 -109.85363954617519, -159.54467327483 -132.62364931814372 C-170.38271109548708 -155.39365909011224, -20.05448895978431 -200.38508858189286, 7.623763884231448 -214.17175726397696 M-0.8531243102252484 1.1564211170375347 C11.145432149519522 -11.534710543105998, 98.32010730738442 -53.953498580406105, 71.78374051883817 -76.04141516283154 C45.247373730291926 -98.12933174525698, -149.42997478331128 -107.9763963857933, -160.07132504150272 -131.3710783775151 C-170.71267529969415 -154.7657603692369, -20.109894164452953 -202.42972314186696, 7.935638969689608 -216.4095071131623" stroke="#000000" stroke-width="1" fill="none"></path></g><g transform="translate(1110 2206.5) rotate(0 -41.31863147320597 -107.6265429980624)"><path d="M-16.074523469560972 -196.21905177586464 C-8.074222644008671 -201.54260755823503, -1.7235163720881772 -207.85009366373683, 8.946398530080915 -218.03476746438804 M-14.292810547293358 -197.1545809957826 C-7.902582216575487 -201.94723072726228, -3.3855147041346783 -206.95269326111492, 8.46969596195966 -216.9444332454613" stroke="#000000" stroke-width="1" fill="none"></path></g><g transform="translate(1110 2206.5) rotate(0 -41.31863147320597 -107.6265429980624)"><path d="M-23.645345737592265 -215.29266319509304 C-13.481171510288657 -215.13566670314577, -4.945137258572775 -215.93752934602946, 8.946398530080915 -218.03476746438804 M-21.86363281532465 -216.228192415011 C-13.488998677452248 -216.23610986084572, -7.057426936031687 -216.41825090712035, 8.46969596195966 -216.9444332454613" stroke="#000000" stroke-width="1" fill="none"></path></g></g><g transform="translate(1135 1926.5) rotate(0 91.25 66.25)"><path d="M-1.914533732458949 -0.45779952593147755 C52.50213538459502 -1.1375712943961844, 100.53513941681013 -0.04482354649808262, 181.17557496018708 0.6789031904190779 M0.3439835151657462 0.4282605657353997 C49.2558991771657 1.4562054082518443, 97.69929276732728 1.2157564267283305, 182.1062445184216 -0.9708512714132667 M181.05470198579133 -1.9804438669234514 C184.09464166772085 41.44563501770608, 182.09306232344824 79.46628596959636, 183.07919979281723 131.05319908075035 M182.13175745215267 0.5639728615060449 C181.25707605823408 49.11326870904304, 180.83614951714407 98.07568196533248, 182.78258256521076 133.04300528857857 M181.10278177447617 131.37903573922813 C140.48296746634878 134.26887113654521, 95.35119217494503 134.7583054383984, -1.7632214408367872 132.03782936744392 M181.673490091227 132.04019361827523 C141.56341030891053 130.48435895929578, 99.70422984147444 131.1436807144666, 0.5701486011967063 132.14312836620957 M0.8535459656268358 134.01730677299201 C1.5011867842404172 98.55238760937937, -2.2212368288310245 68.98807078646496, -1.5540202837437391 1.8868834059685469 M0.1841167351230979 131.99892112705857 C-0.0058714308543130755 80.21459014317952, -0.4208375074667856 30.050712993834154, 0.5188388666138053 0.8709303149953485" stroke="#000000" stroke-width="1" fill="none"></path></g><g transform="translate(1170 1945.5) rotate(0 56 45.5)"><text x="0" y="32.5" font-family="Virgil, Segoe UI Emoji" font-size="36px" fill="#000000" text-anchor="start" style="white-space: pre;" direction="ltr">Diesel</text><text x="0" y="78" font-family="Virgil, Segoe UI Emoji" font-size="36px" fill="#000000" text-anchor="start" style="white-space: pre;" direction="ltr">query</text></g><g><g transform="translate(1332.5 1996.5) rotate(0 -177.58655647833643 258.6827779801191)"><path d="M0.9655014406889675 0.120043497160077 C15.32469300540785 26.95606404232482, 163.42191576672099 85.72930872129892, 86.01965141408145 160.3934091258794 C8.617387061441931 235.05750953045987, -431.68871417728565 388.62794824528214, -463.44808467514815 448.1046459246429 C-495.20745517301066 507.5813436040037, -164.31025199381014 505.7426734575384, -104.53657157309354 517.2535952020439 M0.01325096771121026 -0.862537612169981 C14.315496815095344 25.656761467407144, 162.45105267529686 83.98702258820329, 85.606922942847 158.47737416818737 C8.762793210397163 232.96772574817146, -429.4426448360582 386.1211186336976, -461.0515274269879 446.07957186773444 C-492.66041001791757 506.03802510177127, -163.19243279134233 506.34339578067284, -104.04637260273098 518.2280935724082" stroke="#000000" stroke-width="1" fill="none"></path></g><g transform="translate(1332.5 1996.5) rotate(0 -177.58655647833643 258.6827779801191)"><path d="M-132.81996939890686 527.7073897022403 C-123.95904335885182 521.9485952252313, -115.2420373647347 522.0550003957205, -104.45704726599156 518.551423320994 M-133.15346394014213 525.5923897346131 C-125.67643094400209 523.8184687315551, -117.22584392585225 522.1986425900207, -103.78973049860447 518.5991018633174" stroke="#000000" stroke-width="1" fill="none"></path></g><g transform="translate(1332.5 1996.5) rotate(0 -177.58655647833643 258.6827779801191)"><path d="M-131.042227073795 507.26332859366056 C-122.80064040792514 507.4212118169191, -114.59688373769501 513.4299912478751, -104.45704726599156 518.551423320994 M-131.37572161503027 505.14832862603333 C-124.26651572325095 508.95833508582035, -116.30038962027311 512.909816109891, -103.78973049860447 518.5991018633174" stroke="#000000" stroke-width="1" fill="none"></path></g></g><g transform="translate(1240 2439) rotate(0 136.25 66.25)"><path d="M0.5297118420273569 -1.3590934974575843 C102.21472669931642 -0.021244741274185568, 202.73261583729663 0.35217832147824013, 272.6220250108935 0.03894083795545437 M-0.31104586640579535 -0.6406472741462933 C90.18873229107463 0.40631042308482446, 179.4781674551974 -0.4530329545204648, 272.33712585668536 -0.6659819409892606 M272.9351731557399 -1.7565992791205645 C272.9291772031458 28.022231970680878, 273.81264004942494 58.02655569789931, 274.2105006594211 132.07733091525733 M272.08391545619816 -0.8170138588175178 C272.82415869950785 49.05018094019033, 272.93292480825914 97.9305602866225, 272.0728419562802 133.1540716001764 M271.46766378873303 133.81750593333726 C173.48188399647088 134.2406565481443, 70.17205970841056 134.47223974916804, -1.4302714218754862 132.22436664840802 M272.417443048979 131.86935126693652 C202.3929635164888 133.82577413180027, 132.6027955712683 133.40672934976268, 0.7280933861544328 133.25469506062478 M-1.8458969574421644 133.20796730928123 C-2.9022041083546357 104.95825032074936, -2.3190533043118196 78.75958733307198, 1.883963169530034 0.7861563842743635 M-0.9287181654945016 132.3454334149137 C-0.3903654829366132 89.23329909495078, -1.4087565854890272 45.05067012319341, -0.9677476743236184 -0.1479872753843665" stroke="#000000" stroke-width="1" fill="none"></path></g><g transform="translate(1320 2465.5) rotate(0 46.5 45.5)"><text x="0" y="32.5" font-family="Virgil, Segoe UI Emoji" font-size="36px" fill="#000000" text-anchor="start" style="white-space: pre;" direction="ltr">SQL</text><text x="0" y="78" font-family="Virgil, Segoe UI Emoji" font-size="36px" fill="#000000" text-anchor="start" style="white-space: pre;" direction="ltr">query</text></g><g><g transform="translate(1522.5 2516.5) rotate(0 -179.2713317672655 114.94549401532868)"><path d="M1.1478263508528472 0.3257820177823305 C16.197371054813267 18.63152022448679, 169.81813787333667 72.14995050119856, 91.0237803708762 110.50228256471455 C12.229422868415725 148.85461462823054, -377.7560233104974 210.6487789798528, -471.61831866391003 230.43977439887823 M0.29129645571112617 -0.5487863682210445 C15.208830840438603 17.336832145204145, 169.3152913878858 70.49725130255024, 90.61321960195899 108.64340616241097 C11.91114781603217 146.7895610222717, -378.1990412642062 208.10913550391794, -471.9211342598498 228.3281427909434" stroke="#000000" stroke-width="1" fill="none"></path></g><g transform="translate(1522.5 2516.5) rotate(0 -179.2713317672655 114.94549401532868)"><path d="M-445.54276024513786 214.78544669033556 C-454.4784909878878 220.2936504059254, -463.8974370281996 224.90544272435142, -473.174042461738 229.1963294454664 M-447.05871956479643 213.91312745114385 C-454.98891252323415 216.68517595972088, -462.16059452733083 221.9443572884704, -472.69497164648027 228.4236527512595" stroke="#000000" stroke-width="1" fill="none"></path></g><g transform="translate(1522.5 2516.5) rotate(0 -179.2713317672655 114.94549401532868)"><path d="M-441.78523042075875 234.9597117823963 C-452.18798978262544 233.2301735142163, -462.9616856919638 230.5682822509846, -473.174042461738 229.1963294454664 M-443.3011897404173 234.0873925432046 C-452.4559296888642 230.53831286788943, -460.7995853354515 229.5051404297807, -472.69497164648027 228.4236527512595" stroke="#000000" stroke-width="1" fill="none"></path></g></g><g transform="translate(707.5 2674) rotate(0 160 75)"><path d="M1.2015454014596751 1.278193859985549 C96.79225349678765 -0.30137607595801286, 194.9934935418036 -0.8437304043220274, 319.44846481375015 0.44751253248627854 M0.0015255706477556377 -0.5547272621876094 C123.17977068856452 -0.0443185918826019, 245.42617255432407 -0.15407154865606176, 320.57086464932024 0.2609433365471866 M320.84387314505875 -1.3994148690253496 C319.6785177770071 33.49713987018913, 319.9357294025831 72.7510230243206, 321.95919698663056 150.39774164371192 M320.0666611036286 -0.20186674501746893 C319.88470584666356 41.3473834246397, 320.7960995188914 81.63296267297119, 320.8540952941403 150.03394344542176 M319.7728084584529 150.179041980967 C207.96435274461876 149.97479582941511, 97.00055593530651 151.05080867236916, 0.5125191969991736 150.4986063471094 M319.6477140610205 149.58509152213026 C204.6388118951772 149.96462267756777, 88.6616245720253 150.5040245329014, -0.4844869110691752 150.32901177984255 M0.6221902389079332 151.7450223248452 C2.5122001920826733 113.27565437275916, -0.7437908495776355 73.17667635902762, 0.5533748287707567 -0.04364040680229664 M0.7543143471702933 149.5078522572294 C-1.1454593013040721 93.40378798730671, -0.6141525278799236 38.35862359683961, 0.755003466270864 0.7723203608766198" stroke="#000000" stroke-width="1" fill="none"></path></g><g transform="translate(787.5 2728) rotate(0 80.5 23)"><text x="0" y="32" font-family="Virgil, Segoe UI Emoji" font-size="36px" fill="#e67700" text-anchor="start" style="white-space: pre;" direction="ltr">Results!!!</text></g><g><g transform="translate(697.5 2749) rotate(0 -259.1336407091003 -271.1561053026469)"><path d="M0.8334573436528443 0.619435466453433 C-70.71243574135006 -39.652337375159064, -341.85042801611127 -151.34409903970857, -428.33059882633387 -241.93594596274198 C-514.8107696365565 -332.5277928857754, -503.32141243927174 -492.8998560894283, -518.0475675176829 -542.9316460717472 M-0.18811628026887783 -0.1009648589976131 C-71.43737452371046 -40.702300694255776, -339.5692715935223 -153.4724242473331, -426.05470867378637 -243.7623923419602 C-512.5401457540504 -334.0523604365873, -504.10750968558716 -492.33003297673554, -519.1007387618534 -541.8407734267602" stroke="#000000" stroke-width="1" fill="none"></path></g><g transform="translate(697.5 2749) rotate(0 -259.1336407091003 -271.1561053026469)"><path d="M-503.74276341643497 -516.8664691310745 C-509.1935307129694 -526.2780576579909, -516.2785585292467 -533.9941326834484, -518.4785485229455 -540.095751101915 M-505.0314116520466 -515.205450339466 C-510.6962176898667 -525.3644987883188, -515.9305230995787 -536.8394291076921, -518.3464244146832 -542.3329211695308" stroke="#000000" stroke-width="1" fill="none"></path></g><g transform="translate(697.5 2749) rotate(0 -259.1336407091003 -271.1561053026469)"><path d="M-524.0373175605481 -513.824911228042 C-521.794190444896 -524.5293842759623, -521.1930623051319 -533.3973884458608, -518.4785485229455 -540.095751101915 M-525.3259657961597 -512.1638924364335 C-522.9224737510502 -523.4051786691236, -520.0667178124597 -536.0925716942659, -518.3464244146832 -542.3329211695308" stroke="#000000" stroke-width="1" fill="none"></path></g></g><g transform="translate(10 2086.5) rotate(0 135 56.25)"><path d="M-0.2657644478481971 -1.4276140803208985 C73.46758121062166 -0.8708898662774159, 147.60089607966663 0.6325725301365065, 271.43712061468955 -0.7548803186914362 M-0.08082886361882277 0.70056025580615 C84.56530413359476 -0.5201066716435937, 168.39169619016315 -1.2090519532827524, 269.2889899564678 -0.18064334112548644 M269.8799085039645 -0.9366051275283098 C271.9101842074887 33.39198100450448, 269.57841229729814 63.86225834442301, 270.0466411132365 111.91317704133685 M269.79403860773886 0.0376341650262475 C270.79780847195065 42.56142414011991, 269.32341131928837 83.94938132865352, 269.90554563608015 113.09339922759678 M270.2661767075637 111.8954588103372 C190.44140798512495 112.30130361323894, 109.09249889635703 113.29356235160996, -0.08981758865546809 113.25290601190044 M269.7300045136293 112.06000140212323 C215.60743040178988 111.3810941716212, 159.8884627608043 111.32139973749715, -0.3938838597692568 113.10785707820567 M-1.562290607020259 111.17010852508243 C0.7837385766906664 86.17733056587164, -0.602373696048744 58.210399087984094, 0.6718896646052599 0.7860001605004072 M0.8713383814319968 112.87501010391857 C0.8966801782371473 72.45674077956934, 0.028585286927409137 33.19591259444131, -0.7822321811690927 0.8703827867284417" stroke="#000000" stroke-width="1" fill="none"></path></g><g transform="translate(67.5 2100.5) rotate(0 74 45.5)"><text x="0" y="32.5" font-family="Virgil, Segoe UI Emoji" font-size="36px" fill="#000000" text-anchor="start" style="white-space: pre;" direction="ltr">Send to</text><text x="0" y="78" font-family="Virgil, Segoe UI Emoji" font-size="36px" fill="#000000" text-anchor="start" style="white-space: pre;" direction="ltr">end user</text></g><g transform="translate(330 1144.6666666666665) rotate(0 163 160)"><text x="0" y="31.714285714285715" font-family="Virgil, Segoe UI Emoji" font-size="36px" fill="#000000" text-anchor="start" style="white-space: pre;" direction="ltr">We should probably</text><text x="0" y="77.42857142857143" font-family="Virgil, Segoe UI Emoji" font-size="36px" fill="#000000" text-anchor="start" style="white-space: pre;" direction="ltr">write a (shivers)</text><text x="0" y="123.14285714285714" font-family="Virgil, Segoe UI Emoji" font-size="36px" fill="#000000" text-anchor="start" style="white-space: pre;" direction="ltr">Javascript</text><text x="0" y="168.85714285714286" font-family="Virgil, Segoe UI Emoji" font-size="36px" fill="#000000" text-anchor="start" style="white-space: pre;" direction="ltr">extension to </text><text x="0" y="214.57142857142858" font-family="Virgil, Segoe UI Emoji" font-size="36px" fill="#000000" text-anchor="start" style="white-space: pre;" direction="ltr">provide optional</text><text x="0" y="260.2857142857143" font-family="Virgil, Segoe UI Emoji" font-size="36px" fill="#000000" text-anchor="start" style="white-space: pre;" direction="ltr">autocomplete for</text><text x="0" y="306" font-family="Virgil, Segoe UI Emoji" font-size="36px" fill="#000000" text-anchor="start" style="white-space: pre;" direction="ltr">this</text></g><g transform="translate(653.3333333333333 1584.666666666667) rotate(0 160 68.5)"><text x="0" y="31.666666666666664" font-family="Virgil, Segoe UI Emoji" font-size="36px" fill="#000000" text-anchor="start" style="white-space: pre;" direction="ltr">Possibly the most</text><text x="0" y="77.33333333333333" font-family="Virgil, Segoe UI Emoji" font-size="36px" fill="#000000" text-anchor="start" style="white-space: pre;" direction="ltr">overthought part</text><text x="0" y="123" font-family="Virgil, Segoe UI Emoji" font-size="36px" fill="#000000" text-anchor="start" style="white-space: pre;" direction="ltr">of computers ever</text></g><g transform="translate(2432.000000000001 1866.1666666666658) rotate(0 118.75 42.5)"><path d="M0.20808021238110028 1.311683848091716 C82.82615928855648 -0.6909231092058, 166.19279113570315 -2.8454800745662627, 236.2410041141378 0.45998554594343344 M0.1339962607524665 -0.47705321768922826 C84.41678026906422 0.316628328510126, 169.83825507318 0.18864465115283977, 237.87439266801553 -0.2725422220206084 M235.64783498458564 -1.8574590664356947 C235.38577267634682 31.34495852375403, 237.86158278691582 66.31129403691739, 239.1270841639489 85.97967797704041 M237.01729235146195 -0.780902580358088 C237.35143597894347 16.209391413722187, 237.33389978581107 34.871239019557834, 238.08086419198662 85.89541138615459 M238.06983850184403 85.8424865128963 C156.85007364458136 84.37635051040182, 75.9121811401992 85.77192234246186, -0.3027727448253278 85.36582253660326 M236.6941744122065 85.75316361986374 C145.8254484219108 84.48811919366443, 55.19113685540986 84.93802471516159, 0.6972930858517857 84.48049915154883 M0.9811950605362654 84.26676714606583 C-1.295004006056115 57.23908006539568, 1.8410424631554634 28.323577509261668, 1.6481845658272505 -0.48282295279204845 M-0.7869141986593604 85.86471651401371 C0.804455223819241 53.23537415219471, 0.5832351775374264 20.19622553884983, 0.5308404574170709 0.19971997942775488" stroke="#000000" stroke-width="1" fill="none"></path></g><g transform="translate(2444.500000000001 1882.6666666666658) rotate(0 59.5 23)"><text x="0" y="32" font-family="Virgil, Segoe UI Emoji" font-size="36px" fill="#000000" text-anchor="start" style="white-space: pre;" direction="ltr">Search</text></g><g><g transform="translate(2589.500000000001 1906.1666666666658) rotate(0 28.325772866280772 1.832028238056182)"><path d="M-0.013457484170794398 0.793781591579318 C9.495210410033662 1.435036068285505, 48.66969537424544 3.1320768685390554, 58.131207125261426 3.4991434942930937 M-1.4796613926999271 0.16491298181936154 C7.83178585714971 0.51844380699719, 47.39141657677169 1.7762440127444763, 57.51454540239647 1.901119080018252" stroke="#000000" stroke-width="1" fill="none"></path></g><g transform="translate(2589.500000000001 1906.1666666666658) rotate(0 28.325772866280772 1.832028238056182)"><path d="M31.571903408683493 12.157012730431344 C42.57266406689776 6.278513496571075, 52.366163979335504 2.5465212846473655, 59.14295544559136 2.8823141405545174 M30.87541119585897 11.78140747785994 C38.33976645882693 8.26894006835207, 45.52237835746642 6.000019651267308, 57.401086246501656 1.1142048813588916" stroke="#000000" stroke-width="1" fill="none"></path></g><g transform="translate(2589.500000000001 1906.1666666666658) rotate(0 28.325772866280772 1.832028238056182)"><path d="M32.03470352114546 -7.522283678233723 C42.797870168742875 -5.727221560380813, 52.41090889991595 -1.7856005195481117, 59.14295544559136 2.8823141405545174 M31.338211308320933 -7.897888930805127 C38.495403896534086 -6.225141693447188, 45.55614277379806 -3.311748521389526, 57.401086246501656 1.1142048813588916" stroke="#000000" stroke-width="1" fill="none"></path></g></g><g><g transform="translate(2687.500000000001 1923.1666666666658) rotate(0 92.66615957506008 318.05572298118886)"><path d="M0.04589411504566665 0.15482736937701702 C101.05905762997766 2.0041899851212897, 580.789122606193 -91.36267645644645, 605.0719471979886 10.163194109126925 C629.3547717897842 111.68906467470029, 316.5447708734622 501.06816622527936, 145.7428416658193 609.3100507628172 C-25.059087541823573 717.5519353003551, -325.6481395394852 651.1562895110497, -419.7396280478686 659.6145013343543 M-1.3891502038948238 -0.8094922070391477 C99.5604028675643 1.3401535301717615, 579.7022931054917 -90.05950480785843, 604.1616740133054 11.786296267639845 C628.6210549211191 113.63209734313811, 315.9534198663321 502.14370105319347, 145.36713524298742 610.2653142459504 C-25.219149380357294 718.3869274387074, -325.1864612984968 652.1466602622779, -419.356033726763 660.5159754241816" stroke="#000000" stroke-width="1" fill="none"></path></g><g transform="translate(2687.500000000001 1923.1666666666658) rotate(0 92.66615957506008 318.05572298118886)"><path d="M-390.4756166244317 651.6492389645261 C-396.71627847145885 654.7201826372655, -404.32292064922154 655.8579060207247, -419.99853150283917 662.5058264500461 M-391.6925006293152 651.441439234635 C-399.86683130862974 655.0824653496177, -408.29890319081153 656.4853816974365, -420.118335485626 661.4477733467705" stroke="#000000" stroke-width="1" fill="none"></path></g><g transform="translate(2687.500000000001 1923.1666666666658) rotate(0 92.66615957506008 318.05572298118886)"><path d="M-391.3954732045384 672.1498210601125 C-397.27798309363277 670.7906367181325, -404.6858621933286 667.4985838869036, -419.99853150283917 662.5058264500461 M-392.6123572094219 671.9420213302213 C-400.5604945099471 669.33035235658, -408.7120621298869 664.4817499561307, -420.118335485626 661.4477733467705" stroke="#000000" stroke-width="1" fill="none"></path></g></g><g transform="translate(1832.5000000000011 2567.166666666666) rotate(0 177.5 23)"><text x="0" y="32" font-family="Virgil, Segoe UI Emoji" font-size="36px" fill="#000000" text-anchor="start" style="white-space: pre;" direction="ltr">www-form-urlencoded</text></g><g transform="translate(1792.5000000000011 2543.166666666666) rotate(0 232.5 45)"><path d="M-0.7915683299607633 -0.9085835360127089 C138.00456909962216 0.3588174655759648, 275.8175371884458 -0.5144956002180261, 465.09337830849176 -0.09906279394155738 M-0.27675836916735763 0.1421059224772751 C173.49219727198135 0.9128986667072877, 346.63381855372455 1.7864652306559188, 464.5840561752386 -0.21150105852839346 M464.97644347138703 -1.0971926767379045 C465.877074423153 28.505094532854855, 466.23523628981786 52.65117255970836, 466.45516491122544 88.2654297631234 M464.7414128324017 -0.2611671378836036 C463.4725144264288 20.201655009761453, 464.64613134237004 40.38423519115895, 464.98836831655353 90.52700835559517 M464.9271583898459 89.72542025181001 C362.5748216659648 88.68202626320875, 258.3785451833557 87.87951578786887, 0.5350569620142578 89.52469339024347 M465.23758470205115 89.73608071023706 C356.0486070372971 92.15464441385069, 246.50470169087183 91.9780185878457, -0.1783437643461525 90.26594324687055 M-0.38462465815246105 91.78312632255256 C1.7355644295923411 58.60823773499578, -0.7599304725416005 27.033170238137238, 1.263595225289464 -0.9948800522834063 M0.37958754505962133 89.07038757298142 C1.0777271731756628 61.92913403362036, 0.6362108035944403 33.83997495379298, -0.5528412023559213 -0.19767892267554998" stroke="#000000" stroke-width="1" fill="none"></path></g></svg>